<svg width="37" height="36" viewBox="0 0 37 36" fill="none" xmlns="http://www.w3.org/2000/svg">
<path d="M0.335938 16.0925C0.335938 15.4881 0.609228 14.9162 1.07943 14.5365L17.0794 1.61621C17.8125 1.02424 18.8594 1.02424 19.5924 1.61622L35.5924 14.5365C36.0626 14.9162 36.3359 15.4881 36.3359 16.0925V34.0016C36.3359 35.1061 35.4405 36.0016 34.3359 36.0016H26.7855C25.6809 36.0016 24.7855 35.1061 24.7855 34.0016V29.8194C24.7855 25.6006 21.5548 23.3699 18.3359 23.3699C15.1171 23.3699 11.8864 25.6006 11.8864 29.8194V34.0016C11.8864 35.1061 10.9909 36.0016 9.88638 36.0016H2.33594C1.23137 36.0016 0.335938 35.1061 0.335938 34.0016V16.0925Z" fill="#E55733"/>
</svg>
