<svg width="29" height="30" viewBox="0 0 29 30" fill="none" xmlns="http://www.w3.org/2000/svg">
<path d="M25.3055 4.79372C24.8824 4.74609 24.4541 4.78416 24.046 4.90566C23.638 5.02717 23.2586 5.22963 22.9305 5.50095C22.6024 5.77228 22.3323 6.10691 22.1363 6.48489C21.9404 6.86287 21.8225 7.27645 21.7899 7.70095L21.641 9.6404L13.2181 4.1697C12.7507 3.86722 12.2152 3.68601 11.6601 3.64245C11.1051 3.59889 10.5479 3.69435 10.039 3.92021C9.53008 4.14607 9.08549 4.4952 8.7454 4.93604C8.40532 5.37688 8.18046 5.89553 8.09116 6.44509C7.35079 6.03839 6.48397 5.92681 5.66473 6.13275C4.8455 6.33868 4.13448 6.8469 3.67444 7.55536C3.21439 8.26382 3.03936 9.12008 3.18449 9.95224C3.32962 10.7844 3.78417 11.5309 4.45688 12.0418C3.99052 12.3463 3.60755 12.7625 3.34272 13.2525C3.07789 13.7426 2.93957 14.2909 2.9403 14.848C2.94102 15.405 3.08078 15.953 3.34689 16.4423C3.613 16.9317 3.99705 17.3468 4.46421 17.6502L5.04282 18.0262C4.57775 18.3313 4.1961 18.7476 3.93243 19.2374C3.66876 19.7271 3.53138 20.2749 3.53274 20.8311C3.5341 21.3874 3.67414 21.9345 3.9402 22.423C4.20626 22.9114 4.58993 23.3259 5.05649 23.6287L11.4022 27.7498C13.1434 28.8872 15.1779 29.4932 17.2577 29.494C18.019 29.4935 18.7782 29.4134 19.5228 29.2547C21.9326 28.7425 24.0946 27.421 25.6494 25.51C27.2042 23.599 28.0583 21.2134 28.0697 18.7498L28.1195 7.95881C28.1244 7.1768 27.8396 6.42066 27.3199 5.83622C26.8003 5.25177 26.0827 4.8804 25.3055 4.79372ZM6.26401 28.2771C6.26305 28.5407 6.1577 28.7932 5.97102 28.9794C5.78434 29.1655 5.53154 29.2701 5.26792 29.2703C4.10448 29.2388 2.97914 28.8488 2.04567 28.1537C1.1122 27.4586 0.416137 26.4921 0.0525927 25.3865C0.0110412 25.2619 -0.0055639 25.1304 0.00372562 24.9994C0.0130151 24.8683 0.0480173 24.7405 0.106734 24.623C0.225317 24.3857 0.433294 24.2053 0.684913 24.1214C0.936532 24.0374 1.21118 24.0569 1.44844 24.1755C1.6857 24.2941 1.86614 24.5021 1.95005 24.7537C2.18147 25.4621 2.62398 26.0829 3.21824 26.5327C3.81249 26.9825 4.53008 27.2399 5.27476 27.2703C5.53902 27.274 5.79114 27.3818 5.97637 27.5703C6.16159 27.7589 6.26496 28.0128 6.26401 28.2771ZM12.5057 1.34646C12.4415 1.08928 12.4821 0.817123 12.6185 0.589852C12.755 0.362582 12.9761 0.198807 13.2333 0.134545C14.3694 -0.118311 15.5559 -0.0137104 16.6303 0.434018C17.7047 0.881746 18.6144 1.6507 19.2347 2.63554C19.3772 2.85919 19.4249 3.13027 19.3675 3.38914C19.3101 3.64801 19.1522 3.87347 18.9286 4.01592C18.7049 4.15837 18.4338 4.20614 18.175 4.14873C17.9161 4.09131 17.6906 3.93341 17.5482 3.70976C17.1519 3.08004 16.5731 2.58611 15.8888 2.29385C15.2046 2.00159 14.4475 1.9249 13.7186 2.074C13.5912 2.10604 13.4587 2.11262 13.3287 2.09338C13.1988 2.07413 13.0739 2.02944 12.9612 1.96186C12.8486 1.89428 12.7503 1.80514 12.6722 1.69954C12.594 1.59394 12.5374 1.47396 12.5057 1.34646Z" fill="#FFC32A"/>
<path d="M25.3055 4.79372C24.8824 4.74609 24.4541 4.78416 24.046 4.90566C23.638 5.02717 23.2586 5.22963 22.9305 5.50095C22.6024 5.77228 22.3323 6.10691 22.1363 6.48489C21.9404 6.86287 21.8225 7.27645 21.7899 7.70095L21.641 9.6404L13.2181 4.1697C12.7507 3.86722 12.2152 3.68601 11.6601 3.64245C11.1051 3.59889 10.5479 3.69435 10.039 3.92021C9.53008 4.14607 9.08549 4.4952 8.7454 4.93604C8.40532 5.37688 8.18046 5.89553 8.09116 6.44509C7.35079 6.03839 6.48397 5.92681 5.66473 6.13275C4.8455 6.33868 4.13448 6.8469 3.67444 7.55536C3.21439 8.26382 3.03936 9.12008 3.18449 9.95224C3.32962 10.7844 3.78417 11.5309 4.45688 12.0418C3.99052 12.3463 3.60755 12.7625 3.34272 13.2525C3.07789 13.7426 2.93957 14.2909 2.9403 14.848C2.94102 15.405 3.08078 15.953 3.34689 16.4423C3.613 16.9317 3.99705 17.3468 4.46421 17.6502L5.04282 18.0262C4.57775 18.3313 4.1961 18.7476 3.93243 19.2374C3.66876 19.7271 3.53138 20.2749 3.53274 20.8311C3.5341 21.3874 3.67414 21.9345 3.9402 22.423C4.20626 22.9114 4.58993 23.3259 5.05649 23.6287L11.4022 27.7498C13.1434 28.8872 15.1779 29.4932 17.2577 29.494C18.019 29.4935 18.7782 29.4134 19.5228 29.2547C21.9326 28.7425 24.0946 27.421 25.6494 25.51C27.2042 23.599 28.0583 21.2134 28.0697 18.7498L28.1195 7.95881C28.1244 7.1768 27.8396 6.42066 27.3199 5.83622C26.8003 5.25177 26.0827 4.8804 25.3055 4.79372ZM26.0697 18.74C26.0626 20.3187 25.6304 21.8664 24.8186 23.2204C24.0068 24.5745 22.8453 25.6849 21.4562 26.435C20.0671 27.1851 18.5015 27.5472 16.9241 27.4834C15.3466 27.4195 13.8155 26.932 12.4916 26.072L6.1454 21.951C5.84791 21.7571 5.6391 21.4535 5.56445 21.1063C5.48981 20.7592 5.55538 20.3966 5.74689 20.0976C5.9384 19.7985 6.24033 19.5873 6.58688 19.5099C6.93343 19.4325 7.29653 19.4952 7.59706 19.6844L11.1527 21.9939C11.3752 22.1383 11.6459 22.1884 11.9054 22.1332C12.1648 22.078 12.3916 21.922 12.536 21.6995C12.6804 21.477 12.7305 21.2063 12.6753 20.9469C12.6201 20.6874 12.4641 20.4606 12.2416 20.3162L8.70059 18.0164L8.67813 18.0017L5.55313 15.9724C5.33006 15.8274 5.15499 15.6195 5.05005 15.375C4.94511 15.1305 4.91501 14.8604 4.96355 14.5988C5.0121 14.3372 5.13712 14.0958 5.3228 13.9052C5.50848 13.7147 5.74649 13.5834 6.00674 13.5281C6.35595 13.455 6.71988 13.5228 7.0194 13.7166L13.7074 18.0594C13.9299 18.2038 14.2006 18.2539 14.46 18.1986C14.7195 18.1434 14.9463 17.9874 15.0907 17.7649C15.2351 17.5424 15.2852 17.2717 15.23 17.0123C15.1747 16.7528 15.0187 16.526 14.7962 16.3816L5.7474 10.5056C5.44992 10.3104 5.24185 10.0054 5.1687 9.65719C5.09556 9.309 5.1633 8.94602 5.35709 8.64764C5.55089 8.34927 5.85498 8.1398 6.20283 8.06505C6.55068 7.99031 6.91397 8.05638 7.21323 8.2488L9.54282 9.7615L9.57407 9.782L16.2621 14.1258C16.3722 14.1978 16.496 14.2474 16.6254 14.2717C16.7547 14.296 16.8876 14.2945 17.0164 14.2673C17.1452 14.2401 17.2674 14.1878 17.3759 14.1133C17.4844 14.0388 17.5771 13.9436 17.6488 13.8332C17.7205 13.7228 17.7696 13.5993 17.7934 13.4699C17.8173 13.3405 17.8153 13.2076 17.7877 13.0789C17.7601 12.9502 17.7073 12.8282 17.6324 12.72C17.5576 12.6117 17.4621 12.5193 17.3514 12.448L10.6439 8.09159C10.3514 7.89453 10.148 7.59038 10.0777 7.24474C10.0073 6.8991 10.0756 6.53966 10.2679 6.24394C10.4624 5.94485 10.7676 5.73513 11.1166 5.6608C11.4655 5.58647 11.8297 5.6536 12.1292 5.84745L21.9647 12.2352C22.1102 12.3296 22.2778 12.3846 22.451 12.3947C22.6242 12.4048 22.7971 12.3697 22.9526 12.2927C23.1081 12.2158 23.2409 12.0997 23.338 11.9559C23.435 11.8121 23.493 11.6455 23.5062 11.4725L23.784 7.85331C23.7956 7.69679 23.8388 7.54424 23.9111 7.40491C23.9833 7.26558 24.0831 7.14238 24.2044 7.04277C24.3247 6.94114 24.4647 6.86551 24.6156 6.82063C24.7666 6.77576 24.9252 6.76261 25.0814 6.78202C25.3681 6.81387 25.6328 6.95074 25.8245 7.16625C26.0162 7.38175 26.1213 7.66061 26.1195 7.94902L26.0697 18.74ZM6.26401 28.2771C6.26305 28.5407 6.1577 28.7932 5.97102 28.9794C5.78434 29.1655 5.53154 29.2701 5.26792 29.2703C4.10448 29.2388 2.97914 28.8488 2.04567 28.1537C1.1122 27.4586 0.416137 26.4921 0.0525927 25.3865C0.0110412 25.2619 -0.0055639 25.1304 0.00372562 24.9994C0.0130151 24.8683 0.0480173 24.7405 0.106734 24.623C0.225317 24.3857 0.433294 24.2053 0.684913 24.1214C0.936532 24.0374 1.21118 24.0569 1.44844 24.1755C1.6857 24.2941 1.86614 24.5021 1.95005 24.7537C2.18147 25.4621 2.62398 26.0829 3.21824 26.5327C3.81249 26.9825 4.53008 27.2399 5.27476 27.2703C5.53902 27.274 5.79114 27.3818 5.97637 27.5703C6.16159 27.7589 6.26496 28.0128 6.26401 28.2771ZM12.5057 1.34646C12.4415 1.08928 12.4821 0.817123 12.6185 0.589852C12.755 0.362582 12.9761 0.198807 13.2333 0.134545C14.3694 -0.118311 15.5559 -0.0137104 16.6303 0.434018C17.7047 0.881746 18.6144 1.6507 19.2347 2.63554C19.3772 2.85919 19.4249 3.13027 19.3675 3.38914C19.3101 3.64801 19.1522 3.87347 18.9286 4.01592C18.7049 4.15837 18.4338 4.20614 18.175 4.14873C17.9161 4.09131 17.6906 3.93341 17.5482 3.70976C17.1519 3.08004 16.5731 2.58611 15.8888 2.29385C15.2046 2.00159 14.4475 1.9249 13.7186 2.074C13.5912 2.10604 13.4587 2.11262 13.3287 2.09338C13.1988 2.07413 13.0739 2.02944 12.9612 1.96186C12.8486 1.89428 12.7503 1.80514 12.6722 1.69954C12.594 1.59394 12.5374 1.47396 12.5057 1.34646Z" fill="black"/>
</svg>
