<svg width="41" height="40" viewBox="0 0 41 40" fill="none" xmlns="http://www.w3.org/2000/svg">
<path d="M12.2539 10.3893C11.8944 11.0295 11.3655 11.5584 10.7252 11.918L2.54521 16.5125C-0.17634 18.0411 -0.176334 21.9589 2.54522 23.4875L10.7252 28.082C11.3655 28.4416 11.8943 28.9705 12.2539 29.6107L16.8484 37.7907C18.377 40.5123 22.2949 40.5123 23.8235 37.7907L28.4179 29.6107C28.7775 28.9705 29.3064 28.4416 29.9466 28.082L38.1267 23.4875C40.8482 21.9589 40.8482 18.0411 38.1267 16.5124L29.9466 11.918C29.3064 11.5584 28.7775 11.0295 28.4179 10.3893L23.8235 2.20928C22.2949 -0.512274 18.377 -0.512273 16.8484 2.20928L12.2539 10.3893Z" fill="#0799EB"/>
</svg>
