<svg width="41" height="40" viewBox="0 0 41 40" fill="none" xmlns="http://www.w3.org/2000/svg">
<path fill-rule="evenodd" clip-rule="evenodd" d="M20.7246 5.33529C12.6244 5.33529 6.05794 11.9018 6.05794 20.002C6.05794 28.1021 12.6244 34.6686 20.7246 34.6686C28.8248 34.6686 35.3913 28.1021 35.3913 20.002C35.3913 11.9018 28.8248 5.33529 20.7246 5.33529ZM0.724609 20.002C0.724609 8.95626 9.67891 0.00195312 20.7246 0.00195312C31.7703 0.00195312 40.7246 8.95626 40.7246 20.002C40.7246 31.0476 31.7703 40.002 20.7246 40.002C9.67891 40.002 0.724609 31.0476 0.724609 20.002Z" fill="#43A363"/>
<path fill-rule="evenodd" clip-rule="evenodd" d="M20.7233 14.6693C17.7778 14.6693 15.39 17.0571 15.39 20.0026C15.39 22.9481 17.7778 25.3359 20.7233 25.3359C23.6688 25.3359 26.0566 22.9481 26.0566 20.0026C26.0566 17.0571 23.6688 14.6693 20.7233 14.6693ZM10.0566 20.0026C10.0566 14.1116 14.8323 9.33594 20.7233 9.33594C26.6143 9.33594 31.39 14.1116 31.39 20.0026C31.39 25.8936 26.6143 30.6693 20.7233 30.6693C14.8323 30.6693 10.0566 25.8936 10.0566 20.0026Z" fill="#43A363"/>
</svg>
