<svg width="400" height="400" viewBox="0 0 400 400" fill="none" xmlns="http://www.w3.org/2000/svg">
<g clip-path="url(#clip0_522_63461)">
<rect width="400" height="400" fill="url(#paint0_linear_522_63461)"/>
<rect width="400" height="400" fill="#1C1C1C"/>
<mask id="path-1-inside-1_522_63461" fill="white">
<path d="M0 0H400V283.789H0V0Z"/>
</mask>
<path d="M0 0.662281H400V-0.662281H0V0.662281Z" fill="white" fill-opacity="0.11" mask="url(#path-1-inside-1_522_63461)"/>
<path d="M15.7625 31.1332C12.8696 31.1332 11.2802 28.9556 11.2802 25.3793C11.2802 21.7871 12.8696 19.6095 15.7625 19.6095C18.6553 19.6095 20.2607 21.7871 20.2607 25.3793C20.2607 28.9556 18.6553 31.1332 15.7625 31.1332ZM15.7625 29.5755C17.4155 29.5755 18.2738 28.0178 18.2738 25.3793C18.2738 22.7249 17.4155 21.1672 15.7625 21.1672C14.1094 21.1672 13.267 22.7249 13.267 25.3793C13.267 28.0178 14.1094 29.5755 15.7625 29.5755ZM23.3346 30.8948V22.7249C22.9531 23.1699 22.1425 23.3925 21.4749 23.3925H20.9663V21.6281H21.2842C22.4763 21.6122 23.3187 21.0241 23.6684 19.8479H25.2896V30.8948H23.3346Z" fill="white" fill-opacity="0.34"/>
<path d="M43.2479 19.6095V21.2785H39.8306V30.8948H37.7801V21.2785H34.3628V19.6095H43.2479ZM49.8243 26.5237V27.3979H44.2452C44.2611 28.7331 45.1035 29.5914 46.3592 29.5914C47.2652 29.5914 47.9328 29.1305 48.2984 28.2721L49.7607 28.9397C49.1726 30.3226 47.9169 31.0855 46.2956 31.0855C43.8637 31.0855 42.4014 29.6073 42.4014 27.0006C42.4014 24.3779 43.8319 22.7567 46.2003 22.7567C48.505 22.7567 49.8243 24.0918 49.8243 26.5237ZM47.9487 26.1422V26.0151C47.9487 24.7117 47.297 24.0282 46.1685 24.0282C44.9605 24.0282 44.277 24.823 44.2452 26.1422H47.9487ZM53.2234 19.3711V30.8948H51.316V19.3711H53.2234ZM57.2775 19.3711V30.8948H55.3702V19.3711H57.2775ZM63.1104 34.0737C62.872 34.0737 62.5541 34.0419 62.2362 33.9942V32.4842C62.5223 32.5478 62.713 32.5478 62.9038 32.5478C63.8257 32.5478 64.3184 32.1664 64.6204 31.2921L64.7793 30.8153L61.6799 22.9474H63.778L65.5105 28.145C65.6377 28.5106 65.7012 28.8126 65.7489 29.0828H65.7807C65.8125 28.8444 65.892 28.5582 66.0191 28.145L67.5927 22.9474H69.5796L66.5913 31.3398C65.8761 33.3585 64.8111 34.0737 63.1104 34.0737ZM73.4893 31.0855C71.2004 31.0855 69.5951 29.5755 69.5951 26.9052C69.5951 24.2508 71.2004 22.7567 73.4893 22.7567C75.7781 22.7567 77.3835 24.2508 77.3835 26.9052C77.3835 29.5755 75.7781 31.0855 73.4893 31.0855ZM73.4893 29.6391C74.7132 29.6391 75.4284 28.7172 75.4284 26.9052C75.4284 25.0932 74.7132 24.2031 73.4893 24.2031C72.2654 24.2031 71.5342 25.0932 71.5342 26.9052C71.5342 28.7172 72.2654 29.6391 73.4893 29.6391ZM81.2206 31.0855C79.2814 31.0855 78.5344 29.9093 78.5344 28.0496V22.9474H80.4417V27.7635C80.4417 28.9238 80.9186 29.5596 81.8405 29.5596C82.8895 29.5596 83.5889 28.6854 83.5889 27.3502V22.9474H85.5122V30.8948H83.7002V29.4166C83.3187 30.402 82.365 31.0855 81.2206 31.0855ZM89.2782 24.8707C89.6756 23.615 90.518 22.7567 91.8055 22.7567C91.885 22.7567 91.9485 22.7567 92.028 22.7726V24.6005C91.9485 24.6005 91.8691 24.5846 91.7737 24.5846C91.0108 24.5846 90.4862 24.8071 90.1206 25.1568C89.4849 25.7767 89.4054 26.6827 89.4054 27.5569V30.8948H87.498V22.9474H89.2782V24.8707ZM99.1122 31.0855C97.189 31.0855 95.9015 29.4166 95.9015 26.937C95.9015 24.4415 97.2684 22.7567 99.2553 22.7567C100.304 22.7567 101.099 23.1858 101.544 24.0759V19.3711H103.451V30.8948H101.655V29.4642C101.21 30.4815 100.304 31.0855 99.1122 31.0855ZM99.7639 29.6232C100.877 29.6232 101.592 28.6854 101.592 27.1913V26.6827C101.592 25.125 100.892 24.219 99.748 24.219C98.5877 24.219 97.8883 25.2045 97.8883 26.9052C97.8883 28.6059 98.6036 29.6232 99.7639 29.6232ZM108.754 31.0855C106.466 31.0855 104.86 29.5755 104.86 26.9052C104.86 24.2508 106.466 22.7567 108.754 22.7567C111.043 22.7567 112.649 24.2508 112.649 26.9052C112.649 29.5755 111.043 31.0855 108.754 31.0855ZM108.754 29.6391C109.978 29.6391 110.694 28.7172 110.694 26.9052C110.694 25.0932 109.978 24.2031 108.754 24.2031C107.531 24.2031 106.799 25.0932 106.799 26.9052C106.799 28.7172 107.531 29.6391 108.754 29.6391ZM117.264 31.0855C114.895 31.0855 113.369 29.4484 113.369 26.9211C113.369 24.3302 114.863 22.7567 117.279 22.7567C119.25 22.7567 120.538 23.8057 120.776 25.6177L118.917 25.9197C118.789 24.8389 118.17 24.2508 117.232 24.2508C116.056 24.2508 115.324 25.2362 115.324 26.8734C115.324 28.59 116.04 29.5755 117.264 29.5755C118.217 29.5755 118.805 28.9874 118.98 27.8748L120.776 28.2404C120.49 30.0047 119.155 31.0855 117.264 31.0855ZM120.952 24.3302V22.9474H122.383V20.9447L124.29 20.1817V22.9474H126.23V24.3302H124.29V28.1291C124.29 28.9715 124.656 29.3848 125.451 29.3848C125.769 29.3848 125.975 29.3371 126.23 29.2894V30.8948C125.769 30.9901 125.419 31.0378 124.926 31.0378C123.019 31.0378 122.383 30.0365 122.383 28.4311V24.3302H120.952ZM130.587 31.0855C128.298 31.0855 126.693 29.5755 126.693 26.9052C126.693 24.2508 128.298 22.7567 130.587 22.7567C132.876 22.7567 134.481 24.2508 134.481 26.9052C134.481 29.5755 132.876 31.0855 130.587 31.0855ZM130.587 29.6391C131.811 29.6391 132.526 28.7172 132.526 26.9052C132.526 25.0932 131.811 24.2031 130.587 24.2031C129.363 24.2031 128.632 25.0932 128.632 26.9052C128.632 28.7172 129.363 29.6391 130.587 29.6391ZM137.603 24.8707C138.001 23.615 138.843 22.7567 140.131 22.7567C140.21 22.7567 140.274 22.7567 140.353 22.7726V24.6005C140.274 24.6005 140.194 24.5846 140.099 24.5846C139.336 24.5846 138.811 24.8071 138.446 25.1568C137.81 25.7767 137.73 26.6827 137.73 27.5569V30.8948H135.823V22.9474H137.603V24.8707Z" fill="white"/>
<path d="M19.5673 84.3789C14.4127 84.3789 11.7928 81.5881 11.451 77.8859L14.1849 77.4872C14.5551 79.9648 16.0929 82.1576 19.6527 82.1576C21.8455 82.1576 24.1522 81.2463 24.1522 78.6833C24.1522 76.2911 22.6714 75.5222 20.3077 75.0381L17.3745 74.4401C14.4982 73.842 12.3054 72.3327 12.3054 68.8584C12.3054 65.4695 15.0393 63.1912 19.3394 63.1912C23.3549 63.1912 26.4305 64.9853 26.8292 68.9438L24.1238 69.5134C23.782 66.8079 22.2727 65.3271 19.2825 65.3271C16.8049 65.3271 15.0962 66.5516 15.0962 68.6021C15.0962 70.567 16.1499 71.5922 18.3997 72.0764L21.3614 72.7029C24.494 73.3579 26.9431 74.7533 26.9431 78.427C26.9431 81.5596 24.6079 84.3789 19.5673 84.3789ZM28.8983 89.448V69.6557H31.1766V72.3042C32.0879 70.3392 33.7396 69.314 35.8185 69.314C39.2644 69.314 41.5711 72.2757 41.5711 76.7753C41.5711 81.3317 39.122 84.2365 35.6761 84.2365C33.4833 84.2365 31.9455 83.0404 31.319 81.645V89.448H28.8983ZM35.1066 82.1007C37.5272 82.1007 39.008 80.1072 39.008 76.7753C39.008 73.4148 37.5841 71.4499 35.192 71.4499C32.7998 71.4499 31.262 73.3294 31.262 76.405V77.0885C31.262 80.1641 32.7429 82.1007 35.1066 82.1007ZM54.9124 75.7785V77.4872H44.8027C44.8312 80.2781 46.5114 82.1007 49.0459 82.1007C50.8685 82.1007 52.207 81.1324 52.8335 79.3952L54.827 80.2781C53.8303 82.8696 51.7514 84.2365 48.8751 84.2365C44.8027 84.2365 42.3821 81.645 42.3821 76.9461C42.3821 72.1903 44.7742 69.314 48.8466 69.314C52.6911 69.314 54.9124 71.5068 54.9124 75.7785ZM52.4633 75.5222V75.209C52.4633 72.589 51.1248 71.222 48.7896 71.222C46.2836 71.222 44.8597 72.8453 44.8027 75.5222H52.4633ZM60.6808 84.2365C57.7761 84.2365 55.868 82.5848 55.868 80.0502C55.868 78.6263 56.58 77.4018 57.8615 76.6898C58.9437 76.1487 60.3106 75.807 62.6458 75.5222L65.2943 75.209V74.9811C65.2943 72.3612 64.3545 71.3075 62.1617 71.3075C60.2252 71.3075 59.0291 72.3327 58.9152 74.1268H56.3237C56.523 71.222 58.8013 69.314 62.1332 69.314C66.0347 69.314 67.7434 71.0796 67.7434 75.2374V79.082C67.7434 81.2748 67.8858 82.7841 68.2275 83.8948H65.693C65.5791 83.1543 65.4936 82.2146 65.4652 81.3033C64.8102 83.1259 63.016 84.2365 60.6808 84.2365ZM61.2219 82.243C63.6995 82.243 65.3228 80.4489 65.3228 77.6866V76.9746L61.4497 77.5442C59.3424 77.8574 58.4311 78.5979 58.4311 79.9933C58.4311 81.3887 59.4848 82.243 61.2219 82.243ZM80.2015 83.8948L75.9013 76.9176L73.3098 79.5376V83.8948H70.8892V63.2482H73.3098V76.6613L79.6889 69.6557H82.8499L77.6385 75.152L83.1917 83.8948H80.2015ZM92.2351 83.8948L88.2197 69.6557H90.7258L93.2888 79.8224C93.4027 80.335 93.5166 80.9331 93.6021 81.5026H93.659C93.7445 80.9331 93.9153 80.335 94.0292 79.8224L96.6207 69.6557H99.2407L101.832 79.8224C101.946 80.335 102.117 80.9331 102.202 81.5026H102.259C102.345 80.9331 102.459 80.335 102.573 79.8224L105.136 69.6557H107.642L103.626 83.8948H100.978L98.2725 73.6427C98.1586 73.187 98.0162 72.4751 97.9592 72.0479H97.9023C97.8453 72.4751 97.7029 73.187 97.589 73.6427L94.8836 83.8948H92.2351ZM109.004 67.0073V63.9601H111.766V67.0073H109.004ZM109.174 83.8948V69.6557H111.595V83.8948H109.174ZM112.821 71.6492V69.6557H115.47V65.9251L117.89 64.8999V69.6557H121.45V71.6492H117.89V79.5376C117.89 81.1609 118.517 81.8728 119.969 81.8728C120.596 81.8728 120.966 81.7874 121.45 81.6735V83.8948C120.823 84.0656 120.254 84.1511 119.343 84.1511C116.267 84.1511 115.47 82.2715 115.47 79.6231V71.6492H112.821ZM123.385 83.8948V63.2482H125.805V72.3327C126.66 70.3392 128.254 69.314 130.476 69.314C133.551 69.314 135.175 71.279 135.175 75.0381V83.8948H132.754V75.209C132.754 72.7029 131.7 71.3929 129.65 71.3929C127.201 71.3929 125.805 73.244 125.805 76.462V83.8948H123.385ZM143.819 89.5904C143.392 89.5904 142.965 89.5619 142.509 89.4765V87.3406C142.879 87.3976 143.221 87.3976 143.534 87.3976C145.243 87.3976 146.126 86.6287 146.781 84.7776L147.151 83.7239L141.484 69.6557H144.189L147.835 79.5661C148.091 80.2781 148.233 80.8476 148.319 81.2463H148.376C148.461 80.8476 148.632 80.2781 148.86 79.5661L152.163 69.6557H154.783L149.23 84.8061C147.92 88.3943 146.211 89.5904 143.819 89.5904ZM161.1 84.2365C157.085 84.2365 154.465 81.4172 154.465 76.7753C154.465 72.1333 157.085 69.314 161.1 69.314C165.116 69.314 167.736 72.1333 167.736 76.7753C167.736 81.4172 165.116 84.2365 161.1 84.2365ZM161.1 82.1291C163.663 82.1291 165.173 80.3065 165.173 76.7753C165.173 73.244 163.663 71.4214 161.1 71.4214C158.537 71.4214 157.028 73.244 157.028 76.7753C157.028 80.3065 158.537 82.1291 161.1 82.1291ZM174.259 84.2365C170.671 84.2365 169.389 82.0722 169.389 78.7402V69.6557H171.81V78.4555C171.81 80.8476 172.835 82.1576 174.715 82.1576C176.993 82.1576 178.531 80.2211 178.531 77.3163V69.6557H180.951V83.8948H178.673V81.2178C178.018 82.955 176.252 84.2365 174.259 84.2365ZM186.581 72.9022C187.265 70.9088 188.745 69.314 190.91 69.314C191.081 69.314 191.251 69.314 191.422 69.3425V71.7062H191.308C189.828 71.7062 188.859 72.1333 188.176 72.8168C186.809 74.1838 186.752 76.0918 186.752 77.8005V83.8948H184.331V69.6557H186.581V72.9022ZM205.062 69.6557V71.6492H201.502V83.8948H199.081V71.6492H196.461V69.6557H199.081V67.406C199.081 64.8145 200.705 63.0773 203.239 63.0773C203.923 63.0773 204.521 63.1343 205.062 63.2767V65.3556C204.549 65.2701 204.008 65.2132 203.552 65.2132C202.1 65.2132 201.502 66.0105 201.502 67.7477V69.6557H205.062ZM217.405 75.7785V77.4872H207.295C207.324 80.2781 209.004 82.1007 211.538 82.1007C213.361 82.1007 214.7 81.1324 215.326 79.3952L217.32 80.2781C216.323 82.8696 214.244 84.2365 211.368 84.2365C207.295 84.2365 204.875 81.645 204.875 76.9461C204.875 72.1903 207.267 69.314 211.339 69.314C215.184 69.314 217.405 71.5068 217.405 75.7785ZM214.956 75.5222V75.209C214.956 72.589 213.617 71.222 211.282 71.222C208.776 71.222 207.352 72.8453 207.295 75.5222H214.956ZM221.892 72.9022C222.575 70.9088 224.056 69.314 226.221 69.314C226.391 69.314 226.562 69.314 226.733 69.3425V71.7062H226.619C225.138 71.7062 224.17 72.1333 223.487 72.8168C222.12 74.1838 222.063 76.0918 222.063 77.8005V83.8948H219.642V69.6557H221.892V72.9022ZM226.542 71.6492V69.6557H229.191V65.9251L231.612 64.8999V69.6557H235.171V71.6492H231.612V79.5376C231.612 81.1609 232.238 81.8728 233.69 81.8728C234.317 81.8728 234.687 81.7874 235.171 81.6735V83.8948C234.545 84.0656 233.975 84.1511 233.064 84.1511C229.988 84.1511 229.191 82.2715 229.191 79.6231V71.6492H226.542ZM236.793 67.0073V63.9601H239.555V67.0073H236.793ZM236.964 83.8948V69.6557H239.384V83.8948H236.964ZM245.309 63.2482V83.8948H242.889V63.2482H245.309ZM248.664 67.0073V63.9601H251.426V67.0073H248.664ZM248.835 83.8948V69.6557H251.255V83.8948H248.835ZM252.481 71.6492V69.6557H255.13V65.9251L257.55 64.8999V69.6557H261.11V71.6492H257.55V79.5376C257.55 81.1609 258.177 81.8728 259.629 81.8728C260.256 81.8728 260.626 81.7874 261.11 81.6735V83.8948C260.483 84.0656 259.914 84.1511 259.003 84.1511C255.927 84.1511 255.13 82.2715 255.13 79.6231V71.6492H252.481ZM263.515 89.5904C263.088 89.5904 262.661 89.5619 262.205 89.4765V87.3406C262.576 87.3976 262.917 87.3976 263.231 87.3976C264.939 87.3976 265.822 86.6287 266.477 84.7776L266.847 83.7239L261.18 69.6557H263.886L267.531 79.5661C267.787 80.2781 267.93 80.8476 268.015 81.2463H268.072C268.157 80.8476 268.328 80.2781 268.556 79.5661L271.86 69.6557H274.48L268.926 84.8061C267.616 88.3943 265.908 89.5904 263.515 89.5904ZM285.725 84.2365C282.279 84.2365 279.944 81.2463 279.944 76.7753C279.944 72.3896 282.45 69.314 286.009 69.314C287.889 69.314 289.284 70.0829 290.196 71.7631V63.2482H292.616V83.8948H290.338V81.2463C289.484 83.1543 287.946 84.2365 285.725 84.2365ZM286.38 82.1007C288.743 82.1007 290.253 80.1641 290.253 77.117V76.462C290.253 73.3579 288.772 71.4499 286.38 71.4499C283.959 71.4499 282.507 73.4148 282.507 76.7753C282.507 80.1072 283.959 82.1007 286.38 82.1007ZM301.483 84.2365C297.468 84.2365 294.848 81.4172 294.848 76.7753C294.848 72.1333 297.468 69.314 301.483 69.314C305.499 69.314 308.119 72.1333 308.119 76.7753C308.119 81.4172 305.499 84.2365 301.483 84.2365ZM301.483 82.1291C304.046 82.1291 305.556 80.3065 305.556 76.7753C305.556 73.244 304.046 71.4214 301.483 71.4214C298.92 71.4214 297.411 73.244 297.411 76.7753C297.411 80.3065 298.92 82.1291 301.483 82.1291ZM315.468 84.2365C311.481 84.2365 308.918 81.3317 308.918 76.7753C308.918 72.1333 311.424 69.314 315.468 69.314C318.8 69.314 320.964 71.222 321.334 74.497L318.857 74.7818C318.6 72.6175 317.347 71.4214 315.411 71.4214C312.962 71.4214 311.481 73.4148 311.481 76.7468C311.481 80.1641 312.962 82.1291 315.496 82.1291C317.433 82.1291 318.629 80.9615 318.999 78.7402L321.306 79.1105C320.793 82.357 318.657 84.2365 315.468 84.2365ZM321.299 71.6492V69.6557H323.948V65.9251L326.368 64.8999V69.6557H329.928V71.6492H326.368V79.5376C326.368 81.1609 326.995 81.8728 328.447 81.8728C329.074 81.8728 329.444 81.7874 329.928 81.6735V83.8948C329.302 84.0656 328.732 84.1511 327.821 84.1511C324.745 84.1511 323.948 82.2715 323.948 79.6231V71.6492H321.299ZM336.935 84.2365C332.92 84.2365 330.3 81.4172 330.3 76.7753C330.3 72.1333 332.92 69.314 336.935 69.314C340.951 69.314 343.571 72.1333 343.571 76.7753C343.571 81.4172 340.951 84.2365 336.935 84.2365ZM336.935 82.1291C339.498 82.1291 341.008 80.3065 341.008 76.7753C341.008 73.244 339.498 71.4214 336.935 71.4214C334.372 71.4214 332.863 73.244 332.863 76.7753C332.863 80.3065 334.372 82.1291 336.935 82.1291ZM347.901 72.9022C348.585 70.9088 350.066 69.314 352.23 69.314C352.401 69.314 352.572 69.314 352.742 69.3425V71.7062H352.629C351.148 71.7062 350.179 72.1333 349.496 72.8168C348.129 74.1838 348.072 76.0918 348.072 77.8005V83.8948H345.651V69.6557H347.901V72.9022ZM352.913 87.8817L352.258 86.6287C353.681 86.0022 353.966 85.3756 353.966 83.9802V83.8948H352.144V80.5344H355.476V83.6954C355.476 85.9737 354.878 87.0558 352.913 87.8817ZM15.324 113.895L11.3086 99.6557H13.8147L16.3777 109.822C16.4916 110.335 16.6056 110.933 16.691 111.503H16.7479C16.8334 110.933 17.0042 110.335 17.1182 109.822L19.7097 99.6557H22.3296L24.9211 109.822C25.0351 110.335 25.2059 110.933 25.2914 111.503H25.3483C25.4338 110.933 25.5477 110.335 25.6616 109.822L28.2246 99.6557H30.7307L26.7153 113.895H24.0668L21.3614 103.643C21.2475 103.187 21.1051 102.475 21.0481 102.048H20.9912C20.9342 102.475 20.7918 103.187 20.6779 103.643L17.9725 113.895H15.324ZM32.4058 113.895V93.2482H34.8264V102.333C35.6808 100.339 37.2756 99.314 39.4968 99.314C42.5725 99.314 44.1957 101.279 44.1957 105.038V113.895H41.7751V105.209C41.7751 102.703 40.7214 101.393 38.671 101.393C36.2219 101.393 34.8264 103.244 34.8264 106.462V113.895H32.4058ZM52.4938 114.237C48.4784 114.237 45.8584 111.417 45.8584 106.775C45.8584 102.133 48.4784 99.314 52.4938 99.314C56.5092 99.314 59.1292 102.133 59.1292 106.775C59.1292 111.417 56.5092 114.237 52.4938 114.237ZM52.4938 112.129C55.0568 112.129 56.5662 110.307 56.5662 106.775C56.5662 103.244 55.0568 101.421 52.4938 101.421C49.9308 101.421 48.4214 103.244 48.4214 106.775C48.4214 110.307 49.9308 112.129 52.4938 112.129ZM72.1217 114.237C68.1348 114.237 65.5718 111.332 65.5718 106.775C65.5718 102.133 68.0778 99.314 72.1217 99.314C75.4537 99.314 77.618 101.222 77.9882 104.497L75.5106 104.782C75.2543 102.617 74.0013 101.421 72.0648 101.421C69.6157 101.421 68.1348 103.415 68.1348 106.747C68.1348 110.164 69.6157 112.129 72.1502 112.129C74.0867 112.129 75.2828 110.962 75.653 108.74L77.9597 109.11C77.4471 112.357 75.3113 114.237 72.1217 114.237ZM83.6202 114.237C80.7155 114.237 78.8074 112.585 78.8074 110.05C78.8074 108.626 79.5194 107.402 80.8009 106.69C81.8831 106.149 83.25 105.807 85.5852 105.522L88.2337 105.209V104.981C88.2337 102.361 87.2939 101.307 85.1011 101.307C83.1646 101.307 81.9685 102.333 81.8546 104.127H79.2631C79.4624 101.222 81.7407 99.314 85.0726 99.314C88.9741 99.314 90.6828 101.08 90.6828 105.237V109.082C90.6828 111.275 90.8252 112.784 91.1669 113.895H88.6324C88.5185 113.154 88.433 112.215 88.4045 111.303C87.7496 113.126 85.9554 114.237 83.6202 114.237ZM84.1613 112.243C86.6389 112.243 88.2622 110.449 88.2622 107.687V106.975L84.3891 107.544C82.2818 107.857 81.3705 108.598 81.3705 109.993C81.3705 111.389 82.4242 112.243 84.1613 112.243ZM93.6862 113.895V99.6557H95.9644V102.475C96.9042 100.339 98.4705 99.314 100.72 99.314C103.853 99.314 105.476 101.251 105.476 105.038V113.895H103.055V105.18C103.055 102.674 102.002 101.393 99.9229 101.393C97.5592 101.393 96.1068 103.301 96.1068 106.462V113.895H93.6862ZM16.1499 171.617H26.1742V173.895H13.4445V153.675H25.9748V155.954H16.1499V162.39H25.4907V164.668H16.1499V171.617ZM28.8427 159.656H31.121V162.133C31.9183 160.254 33.2853 159.314 35.1933 159.314C37.1583 159.314 38.5822 160.311 39.2372 162.162C40.177 160.254 41.6294 159.314 43.5659 159.314C46.2998 159.314 47.8945 161.251 47.8945 164.554V173.895H45.4739V164.753C45.4739 162.532 44.5626 161.393 42.7685 161.393C40.7465 161.393 39.5789 162.874 39.5789 165.465V173.895H37.1583V164.639C37.1583 162.561 36.1901 161.393 34.4814 161.393C32.4879 161.393 31.2633 162.988 31.2633 165.579V173.895H28.8427V159.656ZM57.7874 174.237C55.623 174.237 53.9998 173.097 53.2594 171.446L52.8322 173.895H50.9811V153.248H53.4018V162.133C54.1422 160.539 55.7085 159.314 57.9298 159.314C61.4041 159.314 63.6539 162.418 63.6539 166.775C63.6539 171.218 61.3471 174.237 57.7874 174.237ZM57.1324 172.101C59.61 172.101 61.0908 170.022 61.0908 166.775C61.0908 163.586 59.6954 161.45 57.1609 161.45C54.7687 161.45 53.3448 163.358 53.3448 166.462V167.202C53.3448 170.164 54.7402 172.101 57.1324 172.101ZM67.9928 162.902C68.6763 160.909 70.1571 159.314 72.3215 159.314C72.4923 159.314 72.6632 159.314 72.8341 159.342V161.706H72.7202C71.2393 161.706 70.2711 162.133 69.5876 162.817C68.2206 164.184 68.1637 166.092 68.1637 167.8V173.895H65.743V159.656H67.9928V162.902ZM74.8363 179.59C74.4091 179.59 73.9819 179.562 73.5263 179.476V177.341C73.8965 177.398 74.2382 177.398 74.5515 177.398C76.2602 177.398 77.143 176.629 77.798 174.778L78.1682 173.724L72.5011 159.656H75.2065L78.8517 169.566C79.108 170.278 79.2504 170.848 79.3358 171.246H79.3928C79.4782 170.848 79.6491 170.278 79.8769 169.566L83.1803 159.656H85.8003L80.2471 174.806C78.9371 178.394 77.2284 179.59 74.8363 179.59ZM92.1174 174.237C88.102 174.237 85.482 171.417 85.482 166.775C85.482 162.133 88.102 159.314 92.1174 159.314C96.1328 159.314 98.7528 162.133 98.7528 166.775C98.7528 171.417 96.1328 174.237 92.1174 174.237ZM92.1174 172.129C94.6804 172.129 96.1897 170.307 96.1897 166.775C96.1897 163.244 94.6804 161.421 92.1174 161.421C89.5544 161.421 88.045 163.244 88.045 166.775C88.045 170.307 89.5544 172.129 92.1174 172.129ZM103.397 153.248V173.895H100.976V153.248H103.397ZM112.276 174.237C108.26 174.237 105.64 171.417 105.64 166.775C105.64 162.133 108.26 159.314 112.276 159.314C116.291 159.314 118.911 162.133 118.911 166.775C118.911 171.417 116.291 174.237 112.276 174.237ZM112.276 172.129C114.839 172.129 116.348 170.307 116.348 166.775C116.348 163.244 114.839 161.421 112.276 161.421C109.713 161.421 108.203 163.244 108.203 166.775C108.203 170.307 109.713 172.129 112.276 172.129ZM132.07 159.428C130.988 159.428 130.276 159.855 129.934 160.766C130.788 161.621 131.244 162.788 131.244 164.127C131.244 166.889 129.279 168.997 125.975 168.997C124.922 168.997 124.011 168.769 123.242 168.399C122.644 168.655 122.216 169.139 122.216 169.794C122.216 170.591 122.814 171.246 124.58 171.246H128.054C131.272 171.246 132.896 172.699 132.896 175.262C132.896 177.939 130.788 179.79 125.833 179.79C120.821 179.79 119.426 177.91 119.426 175.888C119.426 174.55 120.223 173.411 121.732 172.927C120.536 172.385 120.081 171.474 120.081 170.449C120.081 169.025 120.906 168.057 122.102 167.601C121.191 166.718 120.707 165.522 120.707 164.127C120.707 161.364 122.672 159.314 125.975 159.314C127.058 159.314 127.969 159.542 128.766 159.912C129.194 158.46 130.247 157.321 132.155 157.321C132.468 157.321 132.782 157.349 133.095 157.434V159.542C132.81 159.485 132.468 159.428 132.07 159.428ZM125.975 167.145C127.798 167.145 128.966 165.892 128.966 164.155C128.966 162.418 127.798 161.165 125.975 161.165C124.153 161.165 122.985 162.39 122.985 164.127C122.985 165.864 124.153 167.145 125.975 167.145ZM127.513 173.382H124.495C124.067 173.382 123.669 173.354 123.299 173.325C122.273 173.781 121.789 174.607 121.789 175.461C121.789 177.227 123.555 177.796 126.118 177.796C129.592 177.796 130.475 176.714 130.475 175.433C130.475 174.094 129.478 173.382 127.513 173.382ZM134.307 157.007V153.96H137.069V157.007H134.307ZM134.478 173.895V159.656H136.898V173.895H134.478ZM145.101 174.237C141.741 174.237 139.463 172.67 138.979 169.851L141.428 169.424C141.77 171.218 143.108 172.243 145.187 172.243C147.095 172.243 148.149 171.303 148.149 170.079C148.149 168.826 147.38 168.313 146.098 168.085L143.307 167.573C140.887 167.117 139.52 165.75 139.52 163.586C139.52 161.137 141.57 159.314 144.931 159.314C148.12 159.314 150.285 160.766 150.569 163.159L148.177 163.7C147.864 162.276 146.753 161.279 144.817 161.279C142.994 161.279 141.883 162.076 141.883 163.472C141.883 164.668 142.681 165.237 144.076 165.494L146.839 166.006C149.402 166.49 150.541 167.8 150.541 169.879C150.541 172.442 148.576 174.237 145.101 174.237ZM150.665 161.649V159.656H153.313V155.925L155.734 154.9V159.656H159.294V161.649H155.734V169.538C155.734 171.161 156.36 171.873 157.813 171.873C158.439 171.873 158.81 171.787 159.294 171.673V173.895C158.667 174.066 158.098 174.151 157.186 174.151C154.111 174.151 153.313 172.272 153.313 169.623V161.649H150.665ZM165.788 174.237C162.428 174.237 160.15 172.67 159.665 169.851L162.115 169.424C162.456 171.218 163.795 172.243 165.874 172.243C167.782 172.243 168.835 171.303 168.835 170.079C168.835 168.826 168.066 168.313 166.785 168.085L163.994 167.573C161.573 167.117 160.207 165.75 160.207 163.586C160.207 161.137 162.257 159.314 165.617 159.314C168.807 159.314 170.971 160.766 171.256 163.159L168.864 163.7C168.551 162.276 167.44 161.279 165.503 161.279C163.681 161.279 162.57 162.076 162.57 163.472C162.57 164.668 163.368 165.237 164.763 165.494L167.525 166.006C170.088 166.49 171.228 167.8 171.228 169.879C171.228 172.442 169.263 174.237 165.788 174.237ZM184.399 174.237C180.412 174.237 177.849 171.332 177.849 166.775C177.849 162.133 180.355 159.314 184.399 159.314C187.731 159.314 189.895 161.222 190.266 164.497L187.788 164.782C187.532 162.617 186.279 161.421 184.342 161.421C181.893 161.421 180.412 163.415 180.412 166.747C180.412 170.164 181.893 172.129 184.428 172.129C186.364 172.129 187.56 170.962 187.93 168.74L190.237 169.11C189.725 172.357 187.589 174.237 184.399 174.237ZM195.898 174.237C192.993 174.237 191.085 172.585 191.085 170.05C191.085 168.626 191.797 167.402 193.078 166.69C194.161 166.149 195.527 165.807 197.863 165.522L200.511 165.209V164.981C200.511 162.361 199.571 161.307 197.379 161.307C195.442 161.307 194.246 162.333 194.132 164.127H191.541C191.74 161.222 194.018 159.314 197.35 159.314C201.252 159.314 202.96 161.08 202.96 165.237V169.082C202.96 171.275 203.103 172.784 203.444 173.895H200.91C200.796 173.154 200.71 172.215 200.682 171.303C200.027 173.126 198.233 174.237 195.898 174.237ZM196.439 172.243C198.916 172.243 200.54 170.449 200.54 167.687V166.975L196.667 167.544C194.559 167.857 193.648 168.598 193.648 169.993C193.648 171.389 194.702 172.243 196.439 172.243ZM208.213 162.902C208.897 160.909 210.378 159.314 212.542 159.314C212.713 159.314 212.884 159.314 213.055 159.342V161.706H212.941C211.46 161.706 210.492 162.133 209.808 162.817C208.441 164.184 208.384 166.092 208.384 167.8V173.895H205.964V159.656H208.213V162.902ZM225.553 165.779V167.487H215.444C215.472 170.278 217.152 172.101 219.687 172.101C221.51 172.101 222.848 171.132 223.475 169.395L225.468 170.278C224.471 172.87 222.392 174.237 219.516 174.237C215.444 174.237 213.023 171.645 213.023 166.946C213.023 162.19 215.415 159.314 219.488 159.314C223.332 159.314 225.553 161.507 225.553 165.779ZM223.104 165.522V165.209C223.104 162.589 221.766 161.222 219.431 161.222C216.925 161.222 215.501 162.845 215.444 165.522H223.104ZM234.398 159.656V161.649H230.838V173.895H228.417V161.649H225.797V159.656H228.417V157.406C228.417 154.814 230.04 153.077 232.575 153.077C233.258 153.077 233.856 153.134 234.398 153.277V155.356C233.885 155.27 233.344 155.213 232.888 155.213C231.436 155.213 230.838 156.011 230.838 157.748V159.656H234.398ZM240.352 174.237C236.763 174.237 235.482 172.072 235.482 168.74V159.656H237.903V168.455C237.903 170.848 238.928 172.158 240.807 172.158C243.086 172.158 244.623 170.221 244.623 167.316V159.656H247.044V173.895H244.766V171.218C244.111 172.955 242.345 174.237 240.352 174.237ZM252.987 153.248V173.895H250.566V153.248H252.987ZM259.075 153.248V173.895H256.655V153.248H259.075ZM262.658 179.59C262.231 179.59 261.803 179.562 261.348 179.476V177.341C261.718 177.398 262.06 177.398 262.373 177.398C264.082 177.398 264.964 176.629 265.619 174.778L265.99 173.724L260.323 159.656H263.028L266.673 169.566C266.929 170.278 267.072 170.848 267.157 171.246H267.214C267.3 170.848 267.471 170.278 267.698 169.566L271.002 159.656H273.622L268.069 174.806C266.759 178.394 265.05 179.59 262.658 179.59ZM280.367 179.448V159.656H282.646V162.304C283.557 160.339 285.209 159.314 287.288 159.314C290.733 159.314 293.04 162.276 293.04 166.775C293.04 171.332 290.591 174.237 287.145 174.237C284.952 174.237 283.415 173.04 282.788 171.645V179.448H280.367ZM286.576 172.101C288.996 172.101 290.477 170.107 290.477 166.775C290.477 163.415 289.053 161.45 286.661 161.45C284.269 161.45 282.731 163.329 282.731 166.405V167.089C282.731 170.164 284.212 172.101 286.576 172.101ZM297.382 162.902C298.066 160.909 299.547 159.314 301.711 159.314C301.882 159.314 302.053 159.314 302.224 159.342V161.706H302.11C300.629 161.706 299.661 162.133 298.977 162.817C297.61 164.184 297.553 166.092 297.553 167.8V173.895H295.133V159.656H297.382V162.902ZM314.722 165.779V167.487H304.613C304.641 170.278 306.321 172.101 308.856 172.101C310.679 172.101 312.017 171.132 312.644 169.395L314.637 170.278C313.64 172.87 311.561 174.237 308.685 174.237C304.613 174.237 302.192 171.645 302.192 166.946C302.192 162.19 304.584 159.314 308.657 159.314C312.501 159.314 314.722 161.507 314.722 165.779ZM312.273 165.522V165.209C312.273 162.589 310.935 161.222 308.6 161.222C306.094 161.222 304.67 162.845 304.613 165.522H312.273ZM316.96 179.448V159.656H319.238V162.304C320.149 160.339 321.801 159.314 323.88 159.314C327.326 159.314 329.632 162.276 329.632 166.775C329.632 171.332 327.183 174.237 323.737 174.237C321.545 174.237 320.007 173.04 319.38 171.645V179.448H316.96ZM323.168 172.101C325.588 172.101 327.069 170.107 327.069 166.775C327.069 163.415 325.645 161.45 323.253 161.45C320.861 161.45 319.323 163.329 319.323 166.405V167.089C319.323 170.164 320.804 172.101 323.168 172.101ZM335.256 174.237C332.351 174.237 330.443 172.585 330.443 170.05C330.443 168.626 331.155 167.402 332.437 166.69C333.519 166.149 334.886 165.807 337.221 165.522L339.87 165.209V164.981C339.87 162.361 338.93 161.307 336.737 161.307C334.8 161.307 333.604 162.333 333.491 164.127H330.899C331.098 161.222 333.377 159.314 336.709 159.314C340.61 159.314 342.319 161.08 342.319 165.237V169.082C342.319 171.275 342.461 172.784 342.803 173.895H340.268C340.154 173.154 340.069 172.215 340.04 171.303C339.385 173.126 337.591 174.237 335.256 174.237ZM335.797 172.243C338.275 172.243 339.898 170.449 339.898 167.687V166.975L336.025 167.544C333.918 167.857 333.006 168.598 333.006 169.993C333.006 171.389 334.06 172.243 335.797 172.243ZM347.572 162.902C348.255 160.909 349.736 159.314 351.901 159.314C352.071 159.314 352.242 159.314 352.413 159.342V161.706H352.299C350.818 161.706 349.85 162.133 349.167 162.817C347.8 164.184 347.743 166.092 347.743 167.8V173.895H345.322V159.656H347.572V162.902ZM364.912 165.779V167.487H354.802C354.831 170.278 356.511 172.101 359.045 172.101C360.868 172.101 362.207 171.132 362.833 169.395L364.826 170.278C363.83 172.87 361.751 174.237 358.875 174.237C354.802 174.237 352.382 171.645 352.382 166.946C352.382 162.19 354.774 159.314 358.846 159.314C362.691 159.314 364.912 161.507 364.912 165.779ZM362.463 165.522V165.209C362.463 162.589 361.124 161.222 358.789 161.222C356.283 161.222 354.859 162.845 354.802 165.522H362.463ZM13.2167 209.59C12.7895 209.59 12.3623 209.562 11.9067 209.476V207.341C12.2769 207.398 12.6186 207.398 12.9319 207.398C14.6406 207.398 15.5234 206.629 16.1784 204.778L16.5486 203.724L10.8815 189.656H13.5869L17.2321 199.566C17.4884 200.278 17.6308 200.848 17.7162 201.246H17.7732C17.8586 200.848 18.0295 200.278 18.2573 199.566L21.5607 189.656H24.1807L18.6275 204.806C17.3175 208.394 15.6088 209.59 13.2167 209.59ZM30.4978 204.237C26.4824 204.237 23.8624 201.417 23.8624 196.775C23.8624 192.133 26.4824 189.314 30.4978 189.314C34.5132 189.314 37.1332 192.133 37.1332 196.775C37.1332 201.417 34.5132 204.237 30.4978 204.237ZM30.4978 202.129C33.0608 202.129 34.5701 200.307 34.5701 196.775C34.5701 193.244 33.0608 191.421 30.4978 191.421C27.9348 191.421 26.4254 193.244 26.4254 196.775C26.4254 200.307 27.9348 202.129 30.4978 202.129ZM43.6565 204.237C40.0682 204.237 38.7867 202.072 38.7867 198.74V189.656H41.2074V198.455C41.2074 200.848 42.2326 202.158 44.1121 202.158C46.3904 202.158 47.9282 200.221 47.9282 197.316V189.656H50.3488V203.895H48.0706V201.218C47.4156 202.955 45.6499 204.237 43.6565 204.237ZM55.9786 192.902C56.6621 190.909 58.143 189.314 60.3073 189.314C60.4782 189.314 60.649 189.314 60.8199 189.342V191.706H60.706C59.2251 191.706 58.2569 192.133 57.5734 192.817C56.2064 194.184 56.1495 196.092 56.1495 197.8V203.895H53.7289V189.656H55.9786V192.902ZM72.6936 204.237C69.3331 204.237 67.0549 202.67 66.5708 199.851L69.0199 199.424C69.3616 201.218 70.7001 202.243 72.779 202.243C74.687 202.243 75.7407 201.303 75.7407 200.079C75.7407 198.826 74.9718 198.313 73.6903 198.085L70.8994 197.573C68.4788 197.117 67.1119 195.75 67.1119 193.586C67.1119 191.137 69.1623 189.314 72.5227 189.314C75.7122 189.314 77.8766 190.766 78.1613 193.159L75.7692 193.7C75.4559 192.276 74.3453 191.279 72.4088 191.279C70.5862 191.279 69.4755 192.076 69.4755 193.472C69.4755 194.668 70.2729 195.237 71.6683 195.494L74.4307 196.006C76.9937 196.49 78.1329 197.8 78.1329 199.879C78.1329 202.442 76.1679 204.237 72.6936 204.237ZM83.924 204.237C81.0192 204.237 79.1112 202.585 79.1112 200.05C79.1112 198.626 79.8231 197.402 81.1046 196.69C82.1868 196.149 83.5538 195.807 85.889 195.522L88.5374 195.209V194.981C88.5374 192.361 87.5976 191.307 85.4048 191.307C83.4683 191.307 82.2722 192.333 82.1583 194.127H79.5668C79.7662 191.222 82.0444 189.314 85.3764 189.314C89.2779 189.314 90.9865 191.08 90.9865 195.237V199.082C90.9865 201.275 91.1289 202.784 91.4707 203.895H88.9361C88.8222 203.154 88.7368 202.215 88.7083 201.303C88.0533 203.126 86.2592 204.237 83.924 204.237ZM84.4651 202.243C86.9426 202.243 88.5659 200.449 88.5659 197.687V196.975L84.6929 197.544C82.5855 197.857 81.6742 198.598 81.6742 199.993C81.6742 201.389 82.7279 202.243 84.4651 202.243ZM93.9899 189.656H96.2681V192.133C97.0655 190.254 98.4325 189.314 100.341 189.314C102.305 189.314 103.729 190.311 104.384 192.162C105.324 190.254 106.777 189.314 108.713 189.314C111.447 189.314 113.042 191.251 113.042 194.554V203.895H110.621V194.753C110.621 192.532 109.71 191.393 107.916 191.393C105.894 191.393 104.726 192.874 104.726 195.465V203.895H102.305V194.639C102.305 192.561 101.337 191.393 99.6286 191.393C97.6351 191.393 96.4105 192.988 96.4105 195.579V203.895H93.9899V189.656ZM115.986 209.448V189.656H118.264V192.304C119.175 190.339 120.827 189.314 122.906 189.314C126.352 189.314 128.659 192.276 128.659 196.775C128.659 201.332 126.21 204.237 122.764 204.237C120.571 204.237 119.033 203.04 118.407 201.645V209.448H115.986ZM122.194 202.101C124.615 202.101 126.096 200.107 126.096 196.775C126.096 193.415 124.672 191.45 122.28 191.45C119.887 191.45 118.35 193.329 118.35 196.405V197.089C118.35 200.164 119.83 202.101 122.194 202.101ZM133.314 183.248V203.895H130.894V183.248H133.314ZM148.088 195.779V197.487H137.979C138.007 200.278 139.687 202.101 142.222 202.101C144.044 202.101 145.383 201.132 146.009 199.395L148.003 200.278C147.006 202.87 144.927 204.237 142.051 204.237C137.979 204.237 135.558 201.645 135.558 196.946C135.558 192.19 137.95 189.314 142.023 189.314C145.867 189.314 148.088 191.507 148.088 195.779ZM145.639 195.522V195.209C145.639 192.589 144.301 191.222 141.966 191.222C139.459 191.222 138.036 192.845 137.979 195.522H145.639ZM155.167 204.237C151.806 204.237 149.528 202.67 149.044 199.851L151.493 199.424C151.835 201.218 153.173 202.243 155.252 202.243C157.16 202.243 158.214 201.303 158.214 200.079C158.214 198.826 157.445 198.313 156.163 198.085L153.373 197.573C150.952 197.117 149.585 195.75 149.585 193.586C149.585 191.137 151.635 189.314 154.996 189.314C158.185 189.314 160.35 190.766 160.635 193.159L158.242 193.7C157.929 192.276 156.818 191.279 154.882 191.279C153.059 191.279 151.949 192.076 151.949 193.472C151.949 194.668 152.746 195.237 154.142 195.494L156.904 196.006C159.467 196.49 160.606 197.8 160.606 199.879C160.606 202.442 158.641 204.237 155.167 204.237ZM172.041 204.237C169.136 204.237 167.228 202.585 167.228 200.05C167.228 198.626 167.94 197.402 169.221 196.69C170.303 196.149 171.67 195.807 174.006 195.522L176.654 195.209V194.981C176.654 192.361 175.714 191.307 173.521 191.307C171.585 191.307 170.389 192.333 170.275 194.127H167.683C167.883 191.222 170.161 189.314 173.493 189.314C177.394 189.314 179.103 191.08 179.103 195.237V199.082C179.103 201.275 179.246 202.784 179.587 203.895H177.053C176.939 203.154 176.853 202.215 176.825 201.303C176.17 203.126 174.376 204.237 172.041 204.237ZM172.582 202.243C175.059 202.243 176.682 200.449 176.682 197.687V196.975L172.809 197.544C170.702 197.857 169.791 198.598 169.791 199.993C169.791 201.389 170.844 202.243 172.582 202.243ZM182.106 203.895V189.656H184.385V192.475C185.325 190.339 186.891 189.314 189.141 189.314C192.273 189.314 193.896 191.251 193.896 195.038V203.895H191.476V195.18C191.476 192.674 190.422 191.393 188.343 191.393C185.98 191.393 184.527 193.301 184.527 196.462V203.895H182.106ZM201.343 204.237C197.898 204.237 195.562 201.246 195.562 196.775C195.562 192.39 198.068 189.314 201.628 189.314C203.508 189.314 204.903 190.083 205.815 191.763V183.248H208.235V203.895H205.957V201.246C205.103 203.154 203.565 204.237 201.343 204.237ZM201.998 202.101C204.362 202.101 205.871 200.164 205.871 197.117V196.462C205.871 193.358 204.391 191.45 201.998 191.45C199.578 191.45 198.125 193.415 198.125 196.775C198.125 200.107 199.578 202.101 201.998 202.101ZM222.233 204.237C218.872 204.237 216.594 202.67 216.11 199.851L218.559 199.424C218.901 201.218 220.239 202.243 222.318 202.243C224.226 202.243 225.28 201.303 225.28 200.079C225.28 198.826 224.511 198.313 223.23 198.085L220.439 197.573C218.018 197.117 216.651 195.75 216.651 193.586C216.651 191.137 218.702 189.314 222.062 189.314C225.252 189.314 227.416 190.766 227.701 193.159L225.309 193.7C224.995 192.276 223.885 191.279 221.948 191.279C220.126 191.279 219.015 192.076 219.015 193.472C219.015 194.668 219.812 195.237 221.208 195.494L223.97 196.006C226.533 196.49 227.672 197.8 227.672 199.879C227.672 202.442 225.707 204.237 222.233 204.237ZM241.181 195.779V197.487H231.071C231.1 200.278 232.78 202.101 235.314 202.101C237.137 202.101 238.475 201.132 239.102 199.395L241.095 200.278C240.099 202.87 238.02 204.237 235.144 204.237C231.071 204.237 228.651 201.645 228.651 196.946C228.651 192.19 231.043 189.314 235.115 189.314C238.96 189.314 241.181 191.507 241.181 195.779ZM238.732 195.522V195.209C238.732 192.589 237.393 191.222 235.058 191.222C232.552 191.222 231.128 192.845 231.071 195.522H238.732ZM243.418 203.895V189.656H245.696V192.475C246.636 190.339 248.202 189.314 250.452 189.314C253.585 189.314 255.208 191.251 255.208 195.038V203.895H252.787V195.18C252.787 192.674 251.734 191.393 249.655 191.393C247.291 191.393 245.839 193.301 245.839 196.462V203.895H243.418ZM262.655 204.237C259.209 204.237 256.874 201.246 256.874 196.775C256.874 192.39 259.38 189.314 262.94 189.314C264.819 189.314 266.215 190.083 267.126 191.763V183.248H269.547V203.895H267.268V201.246C266.414 203.154 264.876 204.237 262.655 204.237ZM263.31 202.101C265.674 202.101 267.183 200.164 267.183 197.117V196.462C267.183 193.358 265.702 191.45 263.31 191.45C260.889 191.45 259.437 193.415 259.437 196.775C259.437 200.107 260.889 202.101 263.31 202.101ZM276.567 191.649V189.656H279.216V185.925L281.636 184.9V189.656H285.196V191.649H281.636V199.538C281.636 201.161 282.263 201.873 283.715 201.873C284.342 201.873 284.712 201.787 285.196 201.673V203.895C284.57 204.066 284 204.151 283.089 204.151C280.013 204.151 279.216 202.272 279.216 199.623V191.649H276.567ZM287.131 203.895V183.248H289.552V192.333C290.406 190.339 292.001 189.314 294.222 189.314C297.298 189.314 298.921 191.279 298.921 195.038V203.895H296.5V195.209C296.5 192.703 295.446 191.393 293.396 191.393C290.947 191.393 289.552 193.244 289.552 196.462V203.895H287.131ZM313.114 195.779V197.487H303.004C303.033 200.278 304.713 202.101 307.247 202.101C309.07 202.101 310.408 201.132 311.035 199.395L313.028 200.278C312.032 202.87 309.953 204.237 307.076 204.237C303.004 204.237 300.583 201.645 300.583 196.946C300.583 192.19 302.976 189.314 307.048 189.314C310.893 189.314 313.114 191.507 313.114 195.779ZM310.665 195.522V195.209C310.665 192.589 309.326 191.222 306.991 191.222C304.485 191.222 303.061 192.845 303.004 195.522H310.665ZM315.351 189.656H317.629V192.133C318.427 190.254 319.794 189.314 321.702 189.314C323.667 189.314 325.09 190.311 325.745 192.162C326.685 190.254 328.138 189.314 330.074 189.314C332.808 189.314 334.403 191.251 334.403 194.554V203.895H331.982V194.753C331.982 192.532 331.071 191.393 329.277 191.393C327.255 191.393 326.087 192.874 326.087 195.465V203.895H323.667V194.639C323.667 192.561 322.698 191.393 320.99 191.393C318.996 191.393 317.772 192.988 317.772 195.579V203.895H315.351V189.656ZM340.854 191.649V189.656H343.503V185.925L345.924 184.9V189.656H349.483V191.649H345.924V199.538C345.924 201.161 346.55 201.873 348.002 201.873C348.629 201.873 348.999 201.787 349.483 201.673V203.895C348.857 204.066 348.287 204.151 347.376 204.151C344.3 204.151 343.503 202.272 343.503 199.623V191.649H340.854ZM356.491 204.237C352.475 204.237 349.855 201.417 349.855 196.775C349.855 192.133 352.475 189.314 356.491 189.314C360.506 189.314 363.126 192.133 363.126 196.775C363.126 201.417 360.506 204.237 356.491 204.237ZM356.491 202.129C359.054 202.129 360.563 200.307 360.563 196.775C360.563 193.244 359.054 191.421 356.491 191.421C353.928 191.421 352.418 193.244 352.418 196.775C352.418 200.307 353.928 202.129 356.491 202.129ZM18.5136 234.237C14.4982 234.237 11.8782 231.417 11.8782 226.775C11.8782 222.133 14.4982 219.314 18.5136 219.314C22.529 219.314 25.149 222.133 25.149 226.775C25.149 231.417 22.529 234.237 18.5136 234.237ZM18.5136 232.129C21.0766 232.129 22.5859 230.307 22.5859 226.775C22.5859 223.244 21.0766 221.421 18.5136 221.421C15.9506 221.421 14.4412 223.244 14.4412 226.775C14.4412 230.307 15.9506 232.129 18.5136 232.129ZM31.6723 234.237C28.084 234.237 26.8025 232.072 26.8025 228.74V219.656H29.2232V228.455C29.2232 230.848 30.2484 232.158 32.1279 232.158C34.4062 232.158 35.944 230.221 35.944 227.316V219.656H38.3646V233.895H36.0864V231.218C35.4314 232.955 33.6657 234.237 31.6723 234.237ZM43.9944 222.902C44.6779 220.909 46.1588 219.314 48.3231 219.314C48.494 219.314 48.6648 219.314 48.8357 219.342V221.706H48.7218C47.2409 221.706 46.2727 222.133 45.5892 222.817C44.2222 224.184 44.1653 226.092 44.1653 227.8V233.895H41.7447V219.656H43.9944V222.902ZM63.6996 234.379C57.4344 234.379 54.5866 229.595 54.5866 223.728C54.5866 217.52 57.7761 213.191 63.785 213.191C68.7117 213.191 71.2747 216.096 71.7873 220.282L69.025 220.567C68.6263 217.52 66.7752 215.498 63.6426 215.498C59.6841 215.498 57.4344 218.801 57.4344 223.7C57.4344 228.427 59.5702 232.015 63.6996 232.015C66.5758 232.015 68.5978 230.107 69.1673 227.089L71.7873 227.544C71.0184 231.36 68.5693 234.379 63.6996 234.379ZM86.8229 233.895L84.744 228.057H76.4854L74.4065 233.895H71.6156L79.2762 213.675H81.9532L89.6138 233.895H86.8229ZM77.2828 225.779H83.9466L81.1273 217.89C80.9564 217.434 80.814 216.95 80.6432 216.352H80.5862C80.4153 216.95 80.2729 217.434 80.1021 217.89L77.2828 225.779ZM98.4498 213.675C102.636 213.675 105.313 216.011 105.313 219.656C105.313 223.301 102.636 225.636 98.4498 225.636H93.9787V233.895H91.2733V213.675H98.4498ZM98.165 223.358C100.785 223.358 102.465 221.906 102.465 219.656C102.465 217.406 100.785 215.954 98.165 215.954H93.9787V223.358H98.165ZM106.249 237.227H104L112.03 212.251H114.28L106.249 237.227ZM123.067 234.379C116.801 234.379 113.954 229.595 113.954 223.728C113.954 217.52 117.143 213.191 123.152 213.191C128.079 213.191 130.642 216.096 131.154 220.282L128.392 220.567C127.993 217.52 126.142 215.498 123.01 215.498C119.051 215.498 116.801 218.801 116.801 223.7C116.801 228.427 118.937 232.015 123.067 232.015C125.943 232.015 127.965 230.107 128.534 227.089L131.154 227.544C130.385 231.36 127.936 234.379 123.067 234.379ZM133.678 233.895V213.675H136.383V231.617H145.724V233.895H133.678ZM150.092 233.895H147.386V213.675H150.092V233.895ZM166.96 233.895L164.881 228.057H156.622L154.544 233.895H151.753L159.413 213.675H162.09L169.751 233.895H166.96ZM157.42 225.779H164.084L161.264 217.89C161.094 217.434 160.951 216.95 160.78 216.352H160.723C160.552 216.95 160.41 217.434 160.239 217.89L157.42 225.779ZM182.037 234.237C178.051 234.237 175.488 231.332 175.488 226.775C175.488 222.133 177.994 219.314 182.037 219.314C185.369 219.314 187.534 221.222 187.904 224.497L185.426 224.782C185.17 222.617 183.917 221.421 181.981 221.421C179.531 221.421 178.051 223.415 178.051 226.747C178.051 230.164 179.531 232.129 182.066 232.129C184.002 232.129 185.199 230.962 185.569 228.74L187.875 229.11C187.363 232.357 185.227 234.237 182.037 234.237ZM201.254 225.779V227.487H191.144C191.172 230.278 192.852 232.101 195.387 232.101C197.21 232.101 198.548 231.132 199.175 229.395L201.168 230.278C200.171 232.87 198.092 234.237 195.216 234.237C191.144 234.237 188.723 231.645 188.723 226.946C188.723 222.19 191.115 219.314 195.188 219.314C199.032 219.314 201.254 221.507 201.254 225.779ZM198.804 225.522V225.209C198.804 222.589 197.466 221.222 195.131 221.222C192.625 221.222 191.201 222.845 191.144 225.522H198.804ZM205.74 222.902C206.424 220.909 207.905 219.314 210.069 219.314C210.24 219.314 210.411 219.314 210.582 219.342V221.706H210.468C208.987 221.706 208.019 222.133 207.335 222.817C205.968 224.184 205.911 226.092 205.911 227.8V233.895H203.491V219.656H205.74V222.902ZM210.391 221.649V219.656H213.04V215.925L215.46 214.9V219.656H219.02V221.649H215.46V229.538C215.46 231.161 216.087 231.873 217.539 231.873C218.166 231.873 218.536 231.787 219.02 231.673V233.895C218.393 234.066 217.824 234.151 216.913 234.151C213.837 234.151 213.04 232.272 213.04 229.623V221.649H210.391ZM220.641 217.007V213.96H223.404V217.007H220.641ZM220.812 233.895V219.656H223.233V233.895H220.812ZM233.202 219.656V221.649H229.642V233.895H227.221V221.649H224.601V219.656H227.221V217.406C227.221 214.814 228.845 213.077 231.379 213.077C232.063 213.077 232.661 213.134 233.202 213.277V215.356C232.689 215.27 232.148 215.213 231.692 215.213C230.24 215.213 229.642 216.011 229.642 217.748V219.656H233.202ZM236.306 217.007V213.96H239.068V217.007H236.306ZM236.477 233.895V219.656H238.897V233.895H236.477ZM253.527 225.779V227.487H243.417C243.445 230.278 245.126 232.101 247.66 232.101C249.483 232.101 250.821 231.132 251.448 229.395L253.441 230.278C252.444 232.87 250.366 234.237 247.489 234.237C243.417 234.237 240.996 231.645 240.996 226.946C240.996 222.19 243.388 219.314 247.461 219.314C251.305 219.314 253.527 221.507 253.527 225.779ZM251.077 225.522V225.209C251.077 222.589 249.739 221.222 247.404 221.222C244.898 221.222 243.474 222.845 243.417 225.522H251.077ZM260.263 234.237C256.817 234.237 254.482 231.246 254.482 226.775C254.482 222.39 256.988 219.314 260.548 219.314C262.428 219.314 263.823 220.083 264.734 221.763V213.248H267.155V233.895H264.877V231.246C264.022 233.154 262.485 234.237 260.263 234.237ZM260.918 232.101C263.282 232.101 264.791 230.164 264.791 227.117V226.462C264.791 223.358 263.31 221.45 260.918 221.45C258.498 221.45 257.045 223.415 257.045 226.775C257.045 230.107 258.498 232.101 260.918 232.101ZM278.874 213.248V233.895H276.454V213.248H278.874ZM285.931 234.237C283.026 234.237 281.118 232.585 281.118 230.05C281.118 228.626 281.83 227.402 283.112 226.69C284.194 226.149 285.561 225.807 287.896 225.522L290.544 225.209V224.981C290.544 222.361 289.605 221.307 287.412 221.307C285.475 221.307 284.279 222.333 284.165 224.127H281.574C281.773 221.222 284.051 219.314 287.383 219.314C291.285 219.314 292.994 221.08 292.994 225.237V229.082C292.994 231.275 293.136 232.784 293.478 233.895H290.943C290.829 233.154 290.744 232.215 290.715 231.303C290.06 233.126 288.266 234.237 285.931 234.237ZM286.472 232.243C288.95 232.243 290.573 230.449 290.573 227.687V226.975L286.7 227.544C284.593 227.857 283.681 228.598 283.681 229.993C283.681 231.389 284.735 232.243 286.472 232.243ZM302.946 234.237C300.781 234.237 299.158 233.097 298.418 231.446L297.99 233.895H296.139V213.248H298.56V222.133C299.3 220.539 300.867 219.314 303.088 219.314C306.562 219.314 308.812 222.418 308.812 226.775C308.812 231.218 306.505 234.237 302.946 234.237ZM302.291 232.101C304.768 232.101 306.249 230.022 306.249 226.775C306.249 223.586 304.854 221.45 302.319 221.45C299.927 221.45 298.503 223.358 298.503 226.462V227.202C298.503 230.164 299.898 232.101 302.291 232.101ZM323.152 219.656V221.649H319.592V233.895H317.171V221.649H314.551V219.656H317.171V217.406C317.171 214.814 318.794 213.077 321.329 213.077C322.012 213.077 322.61 213.134 323.152 213.277V215.356C322.639 215.27 322.098 215.213 321.642 215.213C320.19 215.213 319.592 216.011 319.592 217.748V219.656H323.152ZM329.6 234.237C325.584 234.237 322.964 231.417 322.964 226.775C322.964 222.133 325.584 219.314 329.6 219.314C333.615 219.314 336.235 222.133 336.235 226.775C336.235 231.417 333.615 234.237 329.6 234.237ZM329.6 232.129C332.163 232.129 333.672 230.307 333.672 226.775C333.672 223.244 332.163 221.421 329.6 221.421C327.037 221.421 325.528 223.244 325.528 226.775C325.528 230.307 327.037 232.129 329.6 232.129ZM340.566 222.902C341.249 220.909 342.73 219.314 344.894 219.314C345.065 219.314 345.236 219.314 345.407 219.342V221.706H345.293C343.812 221.706 342.844 222.133 342.161 222.817C340.794 224.184 340.737 226.092 340.737 227.8V233.895H338.316V219.656H340.566V222.902ZM16.691 264.237C13.7862 264.237 11.8782 262.585 11.8782 260.05C11.8782 258.626 12.5901 257.402 13.8717 256.69C14.9538 256.149 16.3208 255.807 18.656 255.522L21.3044 255.209V254.981C21.3044 252.361 20.3647 251.307 18.1718 251.307C16.2353 251.307 15.0393 252.333 14.9253 254.127H12.3338C12.5332 251.222 14.8114 249.314 18.1434 249.314C22.0449 249.314 23.7535 251.08 23.7535 255.237V259.082C23.7535 261.275 23.8959 262.784 24.2377 263.895H21.7031C21.5892 263.154 21.5038 262.215 21.4753 261.303C20.8203 263.126 19.0262 264.237 16.691 264.237ZM17.2321 262.243C19.7097 262.243 21.3329 260.449 21.3329 257.687V256.975L17.4599 257.544C15.3525 257.857 14.4412 258.598 14.4412 259.993C14.4412 261.389 15.4949 262.243 17.2321 262.243ZM26.7569 263.895V249.656H29.0352V252.475C29.9749 250.339 31.5412 249.314 33.791 249.314C36.9236 249.314 38.5468 251.251 38.5468 255.038V263.895H36.1262V255.18C36.1262 252.674 35.0725 251.393 32.9936 251.393C30.6299 251.393 29.1776 253.301 29.1776 256.462V263.895H26.7569ZM45.0256 264.237C42.1209 264.237 40.2128 262.585 40.2128 260.05C40.2128 258.626 40.9248 257.402 42.2063 256.69C43.2885 256.149 44.6554 255.807 46.9906 255.522L49.6391 255.209V254.981C49.6391 252.361 48.6993 251.307 46.5065 251.307C44.57 251.307 43.3739 252.333 43.26 254.127H40.6685C40.8678 251.222 43.1461 249.314 46.478 249.314C50.3795 249.314 52.0882 251.08 52.0882 255.237V259.082C52.0882 261.275 52.2306 262.784 52.5723 263.895H50.0378C49.9239 263.154 49.8384 262.215 49.81 261.303C49.155 263.126 47.3608 264.237 45.0256 264.237ZM45.5667 262.243C48.0443 262.243 49.6676 260.449 49.6676 257.687V256.975L45.7946 257.544C43.6872 257.857 42.7759 258.598 42.7759 259.993C42.7759 261.389 43.8296 262.243 45.5667 262.243ZM57.6546 243.248V263.895H55.234V243.248H57.6546ZM61.2369 269.59C60.8097 269.59 60.3825 269.562 59.9269 269.476V267.341C60.2971 267.398 60.6388 267.398 60.9521 267.398C62.6608 267.398 63.5436 266.629 64.1986 264.778L64.5688 263.724L58.9017 249.656H61.6071L65.2523 259.566C65.5086 260.278 65.651 260.848 65.7364 261.246H65.7934C65.8788 260.848 66.0497 260.278 66.2775 259.566L69.5809 249.656H72.2009L66.6477 264.806C65.3377 268.394 63.629 269.59 61.2369 269.59ZM77.8663 264.237C74.5059 264.237 72.2277 262.67 71.7435 259.851L74.1927 259.424C74.5344 261.218 75.8729 262.243 77.9518 262.243C79.8598 262.243 80.9135 261.303 80.9135 260.079C80.9135 258.826 80.1446 258.313 78.8631 258.085L76.0722 257.573C73.6516 257.117 72.2846 255.75 72.2846 253.586C72.2846 251.137 74.335 249.314 77.6955 249.314C80.885 249.314 83.0493 250.766 83.3341 253.159L80.942 253.7C80.6287 252.276 79.5181 251.279 77.5815 251.279C75.759 251.279 74.6483 252.076 74.6483 253.472C74.6483 254.668 75.4457 255.237 76.8411 255.494L79.6035 256.006C82.1665 256.49 83.3056 257.8 83.3056 259.879C83.3056 262.442 81.3407 264.237 77.8663 264.237ZM85.3946 247.007V243.96H88.157V247.007H85.3946ZM85.5655 263.895V249.656H87.9861V263.895H85.5655ZM96.1892 264.237C92.8288 264.237 90.5505 262.67 90.0664 259.851L92.5155 259.424C92.8572 261.218 94.1957 262.243 96.2746 262.243C98.1826 262.243 99.2363 261.303 99.2363 260.079C99.2363 258.826 98.4674 258.313 97.1859 258.085L94.395 257.573C91.9744 257.117 90.6075 255.75 90.6075 253.586C90.6075 251.137 92.6579 249.314 96.0183 249.314C99.2078 249.314 101.372 250.766 101.657 253.159L99.2648 253.7C98.9515 252.276 97.8409 251.279 95.9044 251.279C94.0818 251.279 92.9711 252.076 92.9711 253.472C92.9711 254.668 93.7685 255.237 95.164 255.494L97.9263 256.006C100.489 256.49 101.628 257.8 101.628 259.879C101.628 262.442 99.6635 264.237 96.1892 264.237ZM106.373 260.534V263.895H103.041V260.534H106.373Z" fill="white"/>
<path d="M119.421 114.237C115.405 114.237 112.785 111.417 112.785 106.775C112.785 102.133 115.405 99.314 119.421 99.314C123.436 99.314 126.056 102.133 126.056 106.775C126.056 111.417 123.436 114.237 119.421 114.237ZM119.421 112.129C121.984 112.129 123.493 110.307 123.493 106.775C123.493 103.244 121.984 101.421 119.421 101.421C116.858 101.421 115.348 103.244 115.348 106.775C115.348 110.307 116.858 112.129 119.421 112.129ZM130.387 102.902C131.07 100.909 132.551 99.314 134.715 99.314C134.886 99.314 135.057 99.314 135.228 99.3425V101.706H135.114C133.633 101.706 132.665 102.133 131.982 102.817C130.615 104.184 130.558 106.092 130.558 107.8V113.895H128.137V99.6557H130.387V102.902ZM140.978 114.237C137.532 114.237 135.196 111.246 135.196 106.775C135.196 102.39 137.703 99.314 141.262 99.314C143.142 99.314 144.537 100.083 145.449 101.763V93.2482H147.869V113.895H145.591V111.246C144.737 113.154 143.199 114.237 140.978 114.237ZM141.633 112.101C143.996 112.101 145.506 110.164 145.506 107.117V106.462C145.506 103.358 144.025 101.45 141.633 101.45C139.212 101.45 137.759 103.415 137.759 106.775C137.759 110.107 139.212 112.101 141.633 112.101ZM162.631 105.779V107.487H152.521C152.55 110.278 154.23 112.101 156.765 112.101C158.587 112.101 159.926 111.132 160.552 109.395L162.546 110.278C161.549 112.87 159.47 114.237 156.594 114.237C152.521 114.237 150.101 111.645 150.101 106.946C150.101 102.19 152.493 99.314 156.565 99.314C160.41 99.314 162.631 101.507 162.631 105.779ZM160.182 105.522V105.209C160.182 102.589 158.844 101.222 156.508 101.222C154.002 101.222 152.578 102.845 152.521 105.522H160.182ZM167.118 102.902C167.802 100.909 169.282 99.314 171.447 99.314C171.618 99.314 171.788 99.314 171.959 99.3425V101.706H171.845C170.365 101.706 169.396 102.133 168.713 102.817C167.346 104.184 167.289 106.092 167.289 107.8V113.895H164.868V99.6557H167.118V102.902ZM186.966 114.379C181.355 114.379 177.71 110.25 177.71 103.785C177.71 97.1781 181.355 93.1912 186.966 93.1912C192.547 93.1912 196.192 97.1781 196.192 103.785C196.192 110.335 192.547 114.379 186.966 114.379ZM186.966 112.101C191.009 112.101 193.345 108.94 193.345 103.785C193.345 98.6021 191.009 95.4695 186.966 95.4695C182.922 95.4695 180.558 98.6021 180.558 103.785C180.558 108.854 182.922 112.101 186.966 112.101ZM200.54 102.902C201.223 100.909 202.704 99.314 204.869 99.314C205.039 99.314 205.21 99.314 205.381 99.3425V101.706H205.267C203.786 101.706 202.818 102.133 202.135 102.817C200.768 104.184 200.711 106.092 200.711 107.8V113.895H198.29V99.6557H200.54V102.902ZM211.9 114.237C207.913 114.237 205.35 111.332 205.35 106.775C205.35 102.133 207.856 99.314 211.9 99.314C215.231 99.314 217.396 101.222 217.766 104.497L215.288 104.782C215.032 102.617 213.779 101.421 211.843 101.421C209.393 101.421 207.913 103.415 207.913 106.747C207.913 110.164 209.393 112.129 211.928 112.129C213.865 112.129 215.061 110.962 215.431 108.74L217.738 109.11C217.225 112.357 215.089 114.237 211.9 114.237ZM220.009 113.895V93.2482H222.43V102.333C223.284 100.339 224.879 99.314 227.1 99.314C230.176 99.314 231.799 101.279 231.799 105.038V113.895H229.378V105.209C229.378 102.703 228.325 101.393 226.274 101.393C223.825 101.393 222.43 103.244 222.43 106.462V113.895H220.009ZM234.572 97.0073V93.9601H237.335V97.0073H234.572ZM234.743 113.895V99.6557H237.164V113.895H234.743ZM245.025 114.237C241.579 114.237 239.244 111.246 239.244 106.775C239.244 102.39 241.75 99.314 245.31 99.314C247.19 99.314 248.585 100.083 249.496 101.763V93.2482H251.917V113.895H249.639V111.246C248.784 113.154 247.246 114.237 245.025 114.237ZM245.68 112.101C248.044 112.101 249.553 110.164 249.553 107.117V106.462C249.553 103.358 248.072 101.45 245.68 101.45C243.26 101.45 241.807 103.415 241.807 106.775C241.807 110.107 243.26 112.101 245.68 112.101ZM255.373 101.165L254.86 93.6753H257.566L257.053 101.165H255.373ZM263.523 114.237C260.163 114.237 257.884 112.67 257.4 109.851L259.849 109.424C260.191 111.218 261.529 112.243 263.608 112.243C265.516 112.243 266.57 111.303 266.57 110.079C266.57 108.826 265.801 108.313 264.52 108.085L261.729 107.573C259.308 107.117 257.941 105.75 257.941 103.586C257.941 101.137 259.992 99.314 263.352 99.314C266.542 99.314 268.706 100.766 268.991 103.159L266.599 103.7C266.285 102.276 265.175 101.279 263.238 101.279C261.416 101.279 260.305 102.076 260.305 103.472C260.305 104.668 261.102 105.237 262.498 105.494L265.26 106.006C267.823 106.49 268.962 107.8 268.962 109.879C268.962 112.442 266.997 114.237 263.523 114.237ZM288.114 105.779V107.487H278.005C278.033 110.278 279.713 112.101 282.248 112.101C284.07 112.101 285.409 111.132 286.035 109.395L288.029 110.278C287.032 112.87 284.953 114.237 282.077 114.237C278.005 114.237 275.584 111.645 275.584 106.946C275.584 102.19 277.976 99.314 282.048 99.314C285.893 99.314 288.114 101.507 288.114 105.779ZM285.665 105.522V105.209C285.665 102.589 284.327 101.222 281.991 101.222C279.485 101.222 278.062 102.845 278.005 105.522H285.665ZM290.351 99.6557H292.63V102.133C293.427 100.254 294.794 99.314 296.702 99.314C298.667 99.314 300.091 100.311 300.746 102.162C301.686 100.254 303.138 99.314 305.075 99.314C307.808 99.314 309.403 101.251 309.403 104.554V113.895H306.983V104.753C306.983 102.532 306.071 101.393 304.277 101.393C302.255 101.393 301.088 102.874 301.088 105.465V113.895H298.667V104.639C298.667 102.561 297.699 101.393 295.99 101.393C293.997 101.393 292.772 102.988 292.772 105.579V113.895H290.351V99.6557ZM319.296 114.237C317.132 114.237 315.508 113.097 314.768 111.446L314.341 113.895H312.49V93.2482H314.91V102.133C315.651 100.539 317.217 99.314 319.438 99.314C322.913 99.314 325.163 102.418 325.163 106.775C325.163 111.218 322.856 114.237 319.296 114.237ZM318.641 112.101C321.119 112.101 322.6 110.022 322.6 106.775C322.6 103.586 321.204 101.45 318.67 101.45C316.277 101.45 314.853 103.358 314.853 106.462V107.202C314.853 110.164 316.249 112.101 318.641 112.101ZM329.501 102.902C330.185 100.909 331.666 99.314 333.83 99.314C334.001 99.314 334.172 99.314 334.343 99.3425V101.706H334.229C332.748 101.706 331.78 102.133 331.096 102.817C329.729 104.184 329.672 106.092 329.672 107.8V113.895H327.252V99.6557H329.501V102.902ZM336.345 119.59C335.918 119.59 335.491 119.562 335.035 119.476V117.341C335.405 117.398 335.747 117.398 336.06 117.398C337.769 117.398 338.652 116.629 339.307 114.778L339.677 113.724L334.01 99.6557H336.715L340.36 109.566C340.617 110.278 340.759 110.848 340.844 111.246H340.901C340.987 110.848 341.158 110.278 341.386 109.566L344.689 99.6557H347.309L341.756 114.806C340.446 118.394 338.737 119.59 336.345 119.59ZM353.626 114.237C349.611 114.237 346.991 111.417 346.991 106.775C346.991 102.133 349.611 99.314 353.626 99.314C357.641 99.314 360.261 102.133 360.261 106.775C360.261 111.417 357.641 114.237 353.626 114.237ZM353.626 112.129C356.189 112.129 357.698 110.307 357.698 106.775C357.698 103.244 356.189 101.421 353.626 101.421C351.063 101.421 349.554 103.244 349.554 106.775C349.554 110.307 351.063 112.129 353.626 112.129ZM11.0239 131.649V129.656H13.6723V125.925L16.0929 124.9V129.656H19.6527V131.649H16.0929V139.538C16.0929 141.161 16.7195 141.873 18.1718 141.873C18.7984 141.873 19.1686 141.787 19.6527 141.673V143.895C19.0262 144.066 18.4566 144.151 17.5453 144.151C14.4697 144.151 13.6723 142.272 13.6723 139.623V131.649H11.0239ZM32.5549 135.779V137.487H22.4452C22.4736 140.278 24.1538 142.101 26.6884 142.101C28.511 142.101 29.8495 141.132 30.476 139.395L32.4694 140.278C31.4727 142.87 29.3938 144.237 26.5175 144.237C22.4452 144.237 20.0245 141.645 20.0245 136.946C20.0245 132.19 22.4167 129.314 26.489 129.314C30.3336 129.314 32.5549 131.507 32.5549 135.779ZM30.1058 135.522V135.209C30.1058 132.589 28.7673 131.222 26.4321 131.222C23.926 131.222 22.5021 132.845 22.4452 135.522H30.1058ZM39.6333 144.237C36.2729 144.237 33.9946 142.67 33.5105 139.851L35.9596 139.424C36.3013 141.218 37.6398 142.243 39.7187 142.243C41.6267 142.243 42.6804 141.303 42.6804 140.079C42.6804 138.826 41.9115 138.313 40.63 138.085L37.8392 137.573C35.4185 137.117 34.0516 135.75 34.0516 133.586C34.0516 131.137 36.102 129.314 39.4624 129.314C42.652 129.314 44.8163 130.766 45.1011 133.159L42.7089 133.7C42.3956 132.276 41.285 131.279 39.3485 131.279C37.5259 131.279 36.4153 132.076 36.4153 133.472C36.4153 134.668 37.2126 135.237 38.6081 135.494L41.3704 136.006C43.9335 136.49 45.0726 137.8 45.0726 139.879C45.0726 142.442 43.1076 144.237 39.6333 144.237ZM45.1966 131.649V129.656H47.845V125.925L50.2656 124.9V129.656H53.8254V131.649H50.2656V139.538C50.2656 141.161 50.8922 141.873 52.3445 141.873C52.9711 141.873 53.3413 141.787 53.8254 141.673V143.895C53.1989 144.066 52.6293 144.151 51.718 144.151C48.6424 144.151 47.845 142.272 47.845 139.623V131.649H45.1966ZM55.4469 127.007V123.96H58.2093V127.007H55.4469ZM55.6178 143.895V129.656H58.0384V143.895H55.6178ZM61.4002 143.895V129.656H63.6785V132.475C64.6182 130.339 66.1845 129.314 68.4343 129.314C71.5669 129.314 73.1901 131.251 73.1901 135.038V143.895H70.7695V135.18C70.7695 132.674 69.7158 131.393 67.6369 131.393C65.2732 131.393 63.8209 133.301 63.8209 136.462V143.895H61.4002ZM87.2156 129.428C86.1335 129.428 85.4215 129.855 85.0798 130.766C85.9341 131.621 86.3898 132.788 86.3898 134.127C86.3898 136.889 84.4248 138.997 81.1213 138.997C80.0676 138.997 79.1563 138.769 78.3874 138.399C77.7894 138.655 77.3622 139.139 77.3622 139.794C77.3622 140.591 77.9603 141.246 79.7259 141.246H83.2002C86.4182 141.246 88.0415 142.699 88.0415 145.262C88.0415 147.939 85.9341 149.79 80.9789 149.79C75.9668 149.79 74.5714 147.91 74.5714 145.888C74.5714 144.55 75.3688 143.411 76.8781 142.927C75.682 142.385 75.2264 141.474 75.2264 140.449C75.2264 139.025 76.0522 138.057 77.2483 137.601C76.337 136.718 75.8529 135.522 75.8529 134.127C75.8529 131.364 77.8179 129.314 81.1213 129.314C82.2035 129.314 83.1148 129.542 83.9122 129.912C84.3393 128.46 85.393 127.321 87.3011 127.321C87.6143 127.321 87.9276 127.349 88.2408 127.434V129.542C87.9561 129.485 87.6143 129.428 87.2156 129.428ZM81.1213 137.145C82.9439 137.145 84.1115 135.892 84.1115 134.155C84.1115 132.418 82.9439 131.165 81.1213 131.165C79.2987 131.165 78.1311 132.39 78.1311 134.127C78.1311 135.864 79.2987 137.145 81.1213 137.145ZM82.6591 143.382H79.6405C79.2133 143.382 78.8146 143.354 78.4444 143.325C77.4192 143.781 76.9351 144.607 76.9351 145.461C76.9351 147.227 78.7007 147.796 81.2637 147.796C84.738 147.796 85.6209 146.714 85.6209 145.433C85.6209 144.094 84.6241 143.382 82.6591 143.382ZM100.621 144.237C96.6055 144.237 93.9855 141.417 93.9855 136.775C93.9855 132.133 96.6055 129.314 100.621 129.314C104.636 129.314 107.256 132.133 107.256 136.775C107.256 141.417 104.636 144.237 100.621 144.237ZM100.621 142.129C103.184 142.129 104.693 140.307 104.693 136.775C104.693 133.244 103.184 131.421 100.621 131.421C98.0579 131.421 96.5485 133.244 96.5485 136.775C96.5485 140.307 98.0579 142.129 100.621 142.129ZM109.337 143.895V129.656H111.615V132.475C112.555 130.339 114.121 129.314 116.371 129.314C119.504 129.314 121.127 131.251 121.127 135.038V143.895H118.706V135.18C118.706 132.674 117.653 131.393 115.574 131.393C113.21 131.393 111.758 133.301 111.758 136.462V143.895H109.337ZM129.775 149.59C129.348 149.59 128.92 149.562 128.465 149.476V147.341C128.835 147.398 129.177 147.398 129.49 147.398C131.199 147.398 132.081 146.629 132.736 144.778L133.107 143.724L127.44 129.656H130.145L133.79 139.566C134.046 140.278 134.189 140.848 134.274 141.246H134.331C134.417 140.848 134.588 140.278 134.815 139.566L138.119 129.656H140.739L135.186 144.806C133.876 148.394 132.167 149.59 129.775 149.59ZM147.056 144.237C143.04 144.237 140.421 141.417 140.421 136.775C140.421 132.133 143.04 129.314 147.056 129.314C151.071 129.314 153.691 132.133 153.691 136.775C153.691 141.417 151.071 144.237 147.056 144.237ZM147.056 142.129C149.619 142.129 151.128 140.307 151.128 136.775C151.128 133.244 149.619 131.421 147.056 131.421C144.493 131.421 142.984 133.244 142.984 136.775C142.984 140.307 144.493 142.129 147.056 142.129ZM160.215 144.237C156.626 144.237 155.345 142.072 155.345 138.74V129.656H157.765V138.455C157.765 140.848 158.791 142.158 160.67 142.158C162.948 142.158 164.486 140.221 164.486 137.316V129.656H166.907V143.895H164.629V141.218C163.974 142.955 162.208 144.237 160.215 144.237ZM172.537 132.902C173.22 130.909 174.701 129.314 176.865 129.314C177.036 129.314 177.207 129.314 177.378 129.342V131.706H177.264C175.783 131.706 174.815 132.133 174.132 132.817C172.765 134.184 172.708 136.092 172.708 137.8V143.895H170.287V129.656H172.537V132.902ZM191.359 144.237C189.195 144.237 187.571 143.097 186.831 141.446L186.404 143.895H184.553V123.248H186.973V132.133C187.714 130.539 189.28 129.314 191.501 129.314C194.976 129.314 197.226 132.418 197.226 136.775C197.226 141.218 194.919 144.237 191.359 144.237ZM190.704 142.101C193.182 142.101 194.662 140.022 194.662 136.775C194.662 133.586 193.267 131.45 190.733 131.45C188.34 131.45 186.916 133.358 186.916 136.462V137.202C186.916 140.164 188.312 142.101 190.704 142.101ZM210.564 135.779V137.487H200.454C200.482 140.278 202.163 142.101 204.697 142.101C206.52 142.101 207.858 141.132 208.485 139.395L210.478 140.278C209.481 142.87 207.402 144.237 204.526 144.237C200.454 144.237 198.033 141.645 198.033 136.946C198.033 132.19 200.425 129.314 204.498 129.314C208.342 129.314 210.564 131.507 210.564 135.779ZM208.114 135.522V135.209C208.114 132.589 206.776 131.222 204.441 131.222C201.935 131.222 200.511 132.845 200.454 135.522H208.114ZM212.943 143.895V123.248H215.364V132.333C216.218 130.339 217.813 129.314 220.034 129.314C223.11 129.314 224.733 131.279 224.733 135.038V143.895H222.312V135.209C222.312 132.703 221.259 131.393 219.208 131.393C216.759 131.393 215.364 133.244 215.364 136.462V143.895H212.943ZM231.208 144.237C228.304 144.237 226.396 142.585 226.396 140.05C226.396 138.626 227.108 137.402 228.389 136.69C229.471 136.149 230.838 135.807 233.173 135.522L235.822 135.209V134.981C235.822 132.361 234.882 131.307 232.689 131.307C230.753 131.307 229.557 132.333 229.443 134.127H226.851C227.051 131.222 229.329 129.314 232.661 129.314C236.562 129.314 238.271 131.08 238.271 135.237V139.082C238.271 141.275 238.413 142.784 238.755 143.895H236.221C236.107 143.154 236.021 142.215 235.993 141.303C235.338 143.126 233.544 144.237 231.208 144.237ZM231.75 142.243C234.227 142.243 235.85 140.449 235.85 137.687V136.975L231.977 137.544C229.87 137.857 228.959 138.598 228.959 139.993C228.959 141.389 230.012 142.243 231.75 142.243ZM243.837 123.248V143.895H241.417V123.248H243.837ZM253.97 129.656V131.649H250.41V143.895H247.989V131.649H245.369V129.656H247.989V127.406C247.989 124.814 249.612 123.077 252.147 123.077C252.831 123.077 253.429 123.134 253.97 123.277V125.356C253.457 125.27 252.916 125.213 252.46 125.213C251.008 125.213 250.41 126.011 250.41 127.748V129.656H253.97ZM256.825 140.534V143.895H253.493V140.534H256.825Z" fill="#628A4E"/>
<mask id="path-6-inside-2_522_63461" fill="white">
<path d="M0 300.421H453V350.211H0V300.421Z"/>
</mask>
<path d="M0 301.083H453V299.759H0V301.083Z" fill="white" fill-opacity="0.11" mask="url(#path-6-inside-2_522_63461)"/>
<path d="M15.7625 331.554C12.8696 331.554 11.2802 329.377 11.2802 325.8C11.2802 322.208 12.8696 320.031 15.7625 320.031C18.6553 320.031 20.2607 322.208 20.2607 325.8C20.2607 329.377 18.6553 331.554 15.7625 331.554ZM15.7625 329.997C17.4155 329.997 18.2738 328.439 18.2738 325.8C18.2738 323.146 17.4155 321.588 15.7625 321.588C14.1094 321.588 13.267 323.146 13.267 325.8C13.267 328.439 14.1094 329.997 15.7625 329.997ZM20.9027 331.316V329.822C22.1584 328.995 23.5571 327.93 24.7651 326.786C26.0208 325.61 26.4658 324.72 26.4658 323.512C26.4658 322.304 25.8459 321.636 24.7333 321.636C23.6048 321.636 22.9372 322.335 22.9372 323.432C22.9372 323.702 22.969 324.036 23.0485 324.402L21.0775 324.211C20.998 323.909 20.9663 323.607 20.9663 323.337C20.9663 321.318 22.4445 320.031 24.8287 320.031C27.1652 320.031 28.548 321.255 28.548 323.416C28.548 324.942 27.8328 326.245 26.291 327.644C25.4963 328.359 24.6538 328.995 23.5571 329.679H28.6593V331.316H20.9027Z" fill="white" fill-opacity="0.34"/>
<path d="M41.7988 331.586C38.6834 331.586 36.8237 329.17 36.8237 325.689C36.8237 322.192 38.8106 319.76 42.1961 319.76C45.2479 319.76 46.5195 321.652 46.7897 323.194L44.7552 323.543C44.5804 322.542 43.8969 321.382 42.1644 321.382C40.098 321.382 38.9218 323.098 38.9218 325.673C38.9218 328.153 40.0027 329.933 42.1803 329.933C44.4691 329.933 45.0572 328.057 45.0572 327.024V326.818H42.0054V325.244H46.9169V331.316H45.4546L45.2797 329.583C44.7552 330.791 43.4836 331.586 41.7988 331.586ZM55.5496 326.945V327.819H49.9705C49.9864 329.154 50.8289 330.013 52.0845 330.013C52.9905 330.013 53.6581 329.552 54.0237 328.693L55.486 329.361C54.8979 330.744 53.6422 331.507 52.021 331.507C49.5891 331.507 48.1267 330.028 48.1267 327.422C48.1267 324.799 49.5573 323.178 51.9256 323.178C54.2303 323.178 55.5496 324.513 55.5496 326.945ZM53.674 326.563V326.436C53.674 325.133 53.0223 324.449 51.8938 324.449C50.6858 324.449 50.0023 325.244 49.9705 326.563H53.674ZM55.8341 324.751V323.369H57.2646V321.366L59.172 320.603V323.369H61.1111V324.751H59.172V328.55C59.172 329.393 59.5376 329.806 60.3323 329.806C60.6502 329.806 60.8568 329.758 61.1111 329.711V331.316C60.6502 331.411 60.3005 331.459 59.8078 331.459C57.9004 331.459 57.2646 330.458 57.2646 328.852V324.751H55.8341ZM66.0854 334.495C65.847 334.495 65.5291 334.463 65.2112 334.415V332.905C65.4973 332.969 65.6881 332.969 65.8788 332.969C66.8007 332.969 67.2934 332.587 67.5954 331.713L67.7544 331.236L64.6549 323.369H66.753L68.4855 328.566C68.6127 328.932 68.6763 329.234 68.724 329.504H68.7558C68.7875 329.265 68.867 328.979 68.9942 328.566L70.5678 323.369H72.5546L69.5664 331.761C68.8511 333.78 67.7862 334.495 66.0854 334.495ZM76.4643 331.507C74.1755 331.507 72.5701 329.997 72.5701 327.326C72.5701 324.672 74.1755 323.178 76.4643 323.178C78.7532 323.178 80.3585 324.672 80.3585 327.326C80.3585 329.997 78.7532 331.507 76.4643 331.507ZM76.4643 330.06C77.6882 330.06 78.4035 329.138 78.4035 327.326C78.4035 325.514 77.6882 324.624 76.4643 324.624C75.2404 324.624 74.5093 325.514 74.5093 327.326C74.5093 329.138 75.2404 330.06 76.4643 330.06ZM84.1956 331.507C82.2565 331.507 81.5094 330.33 81.5094 328.471V323.369H83.4168V328.185C83.4168 329.345 83.8936 329.981 84.8155 329.981C85.8646 329.981 86.5639 329.107 86.5639 327.771V323.369H88.4872V331.316H86.6752V329.838C86.2937 330.823 85.3401 331.507 84.1956 331.507ZM92.2533 325.292C92.6506 324.036 93.4931 323.178 94.7805 323.178C94.86 323.178 94.9236 323.178 95.0031 323.194V325.022C94.9236 325.022 94.8441 325.006 94.7487 325.006C93.9858 325.006 93.4613 325.228 93.0957 325.578C92.4599 326.198 92.3804 327.104 92.3804 327.978V331.316H90.4731V323.369H92.2533V325.292ZM101.308 325.292C101.706 324.036 102.548 323.178 103.836 323.178C103.915 323.178 103.979 323.178 104.058 323.194V325.022C103.979 325.022 103.899 325.006 103.804 325.006C103.041 325.006 102.516 325.228 102.151 325.578C101.515 326.198 101.436 327.104 101.436 327.978V331.316H99.5282V323.369H101.308V325.292ZM111.766 326.945V327.819H106.187C106.203 329.154 107.045 330.013 108.301 330.013C109.207 330.013 109.874 329.552 110.24 328.693L111.702 329.361C111.114 330.744 109.858 331.507 108.237 331.507C105.805 331.507 104.343 330.028 104.343 327.422C104.343 324.799 105.773 323.178 108.142 323.178C110.446 323.178 111.766 324.513 111.766 326.945ZM109.89 326.563V326.436C109.89 325.133 109.238 324.449 108.11 324.449C106.902 324.449 106.218 325.244 106.187 326.563H109.89ZM113.178 334.415V323.369H114.99V324.751C115.483 323.718 116.405 323.178 117.533 323.178C119.44 323.178 120.728 324.815 120.728 327.326C120.728 329.885 119.393 331.507 117.438 331.507C116.309 331.507 115.514 330.95 115.085 330.171V334.415H113.178ZM116.881 330.044C118.026 330.044 118.741 329.027 118.741 327.326C118.741 325.626 118.058 324.64 116.897 324.64C115.753 324.64 115.038 325.546 115.038 327.151V327.549C115.038 329.075 115.753 330.044 116.881 330.044ZM125.348 331.507C123.059 331.507 121.454 329.997 121.454 327.326C121.454 324.672 123.059 323.178 125.348 323.178C127.637 323.178 129.242 324.672 129.242 327.326C129.242 329.997 127.637 331.507 125.348 331.507ZM125.348 330.06C126.572 330.06 127.287 329.138 127.287 327.326C127.287 325.514 126.572 324.624 125.348 324.624C124.124 324.624 123.393 325.514 123.393 327.326C123.393 329.138 124.124 330.06 125.348 330.06ZM132.364 325.292C132.762 324.036 133.604 323.178 134.892 323.178C134.971 323.178 135.035 323.178 135.114 323.194V325.022C135.035 325.022 134.955 325.006 134.86 325.006C134.097 325.006 133.572 325.228 133.207 325.578C132.571 326.198 132.491 327.104 132.491 327.978V331.316H130.584V323.369H132.364V325.292ZM135.42 324.751V323.369H136.85V321.366L138.758 320.603V323.369H140.697V324.751H138.758V328.55C138.758 329.393 139.123 329.806 139.918 329.806C140.236 329.806 140.442 329.758 140.697 329.711V331.316C140.236 331.411 139.886 331.459 139.393 331.459C137.486 331.459 136.85 330.458 136.85 328.852V324.751H135.42ZM144.783 331.507C142.971 331.507 141.62 330.744 141.111 329.345L142.542 328.709C142.891 329.599 143.686 330.108 144.815 330.108C145.8 330.108 146.309 329.695 146.309 329.122C146.309 328.55 145.959 328.328 145.164 328.201L143.75 327.946C142.271 327.676 141.477 326.897 141.477 325.626C141.477 324.195 142.701 323.178 144.719 323.178C146.42 323.178 147.692 323.861 148.073 325.006L146.754 325.721C146.372 325.006 145.673 324.561 144.624 324.561C143.734 324.561 143.225 324.894 143.225 325.514C143.225 326.055 143.591 326.293 144.29 326.42L145.848 326.706C147.374 326.977 148.041 327.74 148.041 328.995C148.041 330.489 146.849 331.507 144.783 331.507Z" fill="white"/>
<mask id="path-10-inside-3_522_63461" fill="white">
<path d="M0 350.211H453V400H0V350.211Z"/>
</mask>
<path d="M0 350.873H453V349.548H0V350.873Z" fill="white" fill-opacity="0.11" mask="url(#path-10-inside-3_522_63461)"/>
<path d="M15.7625 381.344C12.8696 381.344 11.2802 379.166 11.2802 375.59C11.2802 371.998 12.8696 369.82 15.7625 369.82C18.6553 369.82 20.2607 371.998 20.2607 375.59C20.2607 379.166 18.6553 381.344 15.7625 381.344ZM15.7625 379.786C17.4155 379.786 18.2738 378.229 18.2738 375.59C18.2738 372.936 17.4155 371.378 15.7625 371.378C14.1094 371.378 13.267 372.936 13.267 375.59C13.267 378.229 14.1094 379.786 15.7625 379.786ZM24.9566 381.344C22.4929 381.344 20.8875 379.993 20.8557 377.863L22.7949 377.656C22.8426 378.991 23.685 379.786 25.0043 379.786C26.2758 379.786 26.9593 379.135 26.9593 377.927C26.9593 376.766 26.2282 376.146 24.7499 376.146H24.1301V374.7H24.7023C26.0056 374.7 26.6414 374.064 26.6414 372.999C26.6414 371.966 25.9897 371.362 24.8453 371.362C23.6055 371.362 22.9062 372.173 22.9062 373.619L20.9988 373.301C20.9988 371.155 22.5247 369.82 24.9566 369.82C27.2931 369.82 28.6283 370.933 28.6283 372.777C28.6283 374.032 27.8176 375.018 26.5302 375.32C28.1196 375.574 28.978 376.464 28.978 377.99C28.978 380.072 27.4203 381.344 24.9566 381.344Z" fill="white" fill-opacity="0.34"/>
<path d="M43.1008 381.376C39.5563 381.376 37.8237 378.864 37.8237 375.447C37.8237 371.934 39.747 369.55 43.1326 369.55C45.9459 369.55 47.5513 371.155 47.8533 373.555L45.7552 373.857C45.5645 372.252 44.6267 371.235 43.069 371.235C41.0821 371.235 39.9377 372.904 39.9377 375.431C39.9377 377.895 41.0504 379.659 43.1167 379.659C44.5631 379.659 45.5486 378.689 45.8347 377.1L47.8692 377.513C47.3924 379.77 45.8506 381.376 43.1008 381.376ZM52.5863 381.296C50.2975 381.296 48.6921 379.786 48.6921 377.116C48.6921 374.461 50.2975 372.967 52.5863 372.967C54.8752 372.967 56.4805 374.461 56.4805 377.116C56.4805 379.786 54.8752 381.296 52.5863 381.296ZM52.5863 379.85C53.8102 379.85 54.5255 378.928 54.5255 377.116C54.5255 375.304 53.8102 374.414 52.5863 374.414C51.3624 374.414 50.6313 375.304 50.6313 377.116C50.6313 378.928 51.3624 379.85 52.5863 379.85ZM57.8222 381.105V373.158H59.6342V374.7C60.1746 373.54 61.0488 372.967 62.2727 372.967C64.0052 372.967 64.9112 374.048 64.9112 376.178V381.105H63.0038V376.369C63.0038 375.113 62.5111 374.493 61.5097 374.493C60.3971 374.493 59.7295 375.383 59.7295 376.893V381.105H57.8222ZM69.5966 381.296C67.7846 381.296 66.4335 380.533 65.9249 379.135L67.3554 378.499C67.7051 379.389 68.4998 379.897 69.6284 379.897C70.6138 379.897 71.1225 379.484 71.1225 378.912C71.1225 378.34 70.7728 378.117 69.978 377.99L68.5634 377.736C67.0852 377.466 66.2905 376.687 66.2905 375.415C66.2905 373.985 67.5144 372.967 69.533 372.967C71.2337 372.967 72.5053 373.651 72.8868 374.795L71.5675 375.511C71.186 374.795 70.4867 374.35 69.4376 374.35C68.5475 374.35 68.0389 374.684 68.0389 375.304C68.0389 375.844 68.4045 376.083 69.1038 376.21L70.6615 376.496C72.1874 376.766 72.855 377.529 72.855 378.785C72.855 380.279 71.6629 381.296 69.5966 381.296ZM76.6993 381.296C74.7601 381.296 74.0131 380.12 74.0131 378.26V373.158H75.9204V377.974C75.9204 379.135 76.3973 379.77 77.3192 379.77C78.3682 379.77 79.0676 378.896 79.0676 377.561V373.158H80.9909V381.105H79.1789V379.627C78.7974 380.613 77.8437 381.296 76.6993 381.296ZM84.9635 369.582V381.105H83.0562V369.582H84.9635ZM85.9341 374.541V373.158H87.3646V371.155L89.272 370.392V373.158H91.2112V374.541H89.272V378.34C89.272 379.182 89.6376 379.595 90.4323 379.595C90.7502 379.595 90.9569 379.548 91.2112 379.5V381.105C90.7502 381.201 90.4005 381.249 89.9078 381.249C88.0004 381.249 87.3646 380.247 87.3646 378.642V374.541H85.9341ZM97.1551 381.105L94.9775 373.158H96.8531L98.077 378.451C98.1246 378.705 98.1882 379.007 98.22 379.309H98.2518C98.2995 379.007 98.3631 378.705 98.4266 378.451L99.73 373.158H101.526L102.845 378.451C102.893 378.705 102.973 379.007 103.004 379.309H103.036C103.084 379.007 103.131 378.705 103.179 378.451L104.419 373.158H106.295L104.101 381.105H102.162L100.811 375.956C100.763 375.717 100.668 375.288 100.652 375.081H100.62C100.588 375.288 100.509 375.717 100.445 375.956L99.0942 381.105H97.1551ZM107.247 371.839V369.852H109.313V371.839H107.247ZM107.342 381.105V373.158H109.25V381.105H107.342ZM110.145 374.541V373.158H111.575V371.155L113.483 370.392V373.158H115.422V374.541H113.483V378.34C113.483 379.182 113.848 379.595 114.643 379.595C114.961 379.595 115.167 379.548 115.422 379.5V381.105C114.961 381.201 114.611 381.249 114.118 381.249C112.211 381.249 111.575 380.247 111.575 378.642V374.541H110.145ZM116.71 381.105V369.582H118.617V374.62C119.094 373.524 119.968 372.967 121.176 372.967C122.893 372.967 123.799 374.064 123.799 376.162V381.105H121.892V376.321C121.892 375.113 121.383 374.493 120.413 374.493C119.269 374.493 118.617 375.367 118.617 376.893V381.105H116.71ZM135.84 376.734V377.609H130.261C130.277 378.944 131.119 379.802 132.375 379.802C133.281 379.802 133.949 379.341 134.314 378.483L135.777 379.15C135.189 380.533 133.933 381.296 132.312 381.296C129.88 381.296 128.417 379.818 128.417 377.211C128.417 374.589 129.848 372.967 132.216 372.967C134.521 372.967 135.84 374.303 135.84 376.734ZM133.965 376.353V376.226C133.965 374.922 133.313 374.239 132.184 374.239C130.976 374.239 130.293 375.034 130.261 376.353H133.965ZM135.799 381.105L138.676 376.989L135.99 373.158H138.167L139.391 375.097C139.614 375.463 139.757 375.717 139.821 375.908H139.836C139.9 375.701 140.043 375.431 140.25 375.097L141.426 373.158H143.556L140.917 377.021L143.794 381.105H141.617L140.202 378.96C139.964 378.61 139.805 378.292 139.773 378.133H139.741C139.693 378.292 139.55 378.578 139.296 378.96L137.881 381.105H135.799ZM144.722 384.205V373.158H146.534V374.541C147.026 373.508 147.948 372.967 149.077 372.967C150.984 372.967 152.272 374.605 152.272 377.116C152.272 379.675 150.936 381.296 148.981 381.296C147.853 381.296 147.058 380.74 146.629 379.961V384.205H144.722ZM148.425 379.834C149.569 379.834 150.285 378.817 150.285 377.116C150.285 375.415 149.601 374.43 148.441 374.43C147.296 374.43 146.581 375.336 146.581 376.941V377.338C146.581 378.864 147.296 379.834 148.425 379.834ZM160.42 376.734V377.609H154.841C154.857 378.944 155.7 379.802 156.955 379.802C157.861 379.802 158.529 379.341 158.895 378.483L160.357 379.15C159.769 380.533 158.513 381.296 156.892 381.296C154.46 381.296 152.998 379.818 152.998 377.211C152.998 374.589 154.428 372.967 156.796 372.967C159.101 372.967 160.42 374.303 160.42 376.734ZM158.545 376.353V376.226C158.545 374.922 157.893 374.239 156.765 374.239C155.557 374.239 154.873 375.034 154.841 376.353H158.545ZM163.613 375.081C164.01 373.826 164.853 372.967 166.14 372.967C166.22 372.967 166.283 372.967 166.363 372.983V374.811C166.283 374.811 166.204 374.795 166.108 374.795C165.345 374.795 164.821 375.018 164.455 375.367C163.82 375.987 163.74 376.893 163.74 377.768V381.105H161.833V373.158H163.613V375.081ZM166.668 374.541V373.158H168.099V371.155L170.006 370.392V373.158H171.945V374.541H170.006V378.34C170.006 379.182 170.372 379.595 171.167 379.595C171.484 379.595 171.691 379.548 171.945 379.5V381.105C171.484 381.201 171.135 381.249 170.642 381.249C168.735 381.249 168.099 380.247 168.099 378.642V374.541H166.668ZM176.031 381.296C174.219 381.296 172.868 380.533 172.36 379.135L173.79 378.499C174.14 379.389 174.935 379.897 176.063 379.897C177.049 379.897 177.557 379.484 177.557 378.912C177.557 378.34 177.208 378.117 176.413 377.99L174.998 377.736C173.52 377.466 172.725 376.687 172.725 375.415C172.725 373.985 173.949 372.967 175.968 372.967C177.669 372.967 178.94 373.651 179.322 374.795L178.002 375.511C177.621 374.795 176.922 374.35 175.872 374.35C174.982 374.35 174.474 374.684 174.474 375.304C174.474 375.844 174.839 376.083 175.539 376.21L177.096 376.496C178.622 376.766 179.29 377.529 179.29 378.785C179.29 380.279 178.098 381.296 176.031 381.296Z" fill="white"/>
</g>
<defs>
<linearGradient id="paint0_linear_522_63461" x1="200" y1="0" x2="200" y2="400" gradientUnits="userSpaceOnUse">
<stop stop-color="#FEFEFE"/>
<stop offset="1" stop-color="#FAFAFA"/>
</linearGradient>
<clipPath id="clip0_522_63461">
<rect width="400" height="400" fill="white"/>
</clipPath>
</defs>
</svg>
